<svg xmlns="http://www.w3.org/2000/svg" xmlns:xlink="http://www.w3.org/1999/xlink" viewBox="0 0 375.43 436.49"><defs><style>.cls-1{fill:url(#linear-gradient);}.cls-2{isolation:isolate;}.cls-3{fill:#fff;}.cls-4{font-size:65px;fill:#302b45;font-family:Poppins-Bold, Poppins;font-weight:700;}.cls-5{font-size:19.66px;fill:#00c5d7;font-family:Poppins-Medium, Poppins;font-weight:500;}.cls-6{clip-path:url(#clip-path);}.cls-10,.cls-11,.cls-12,.cls-7{mix-blend-mode:color-dodge;}.cls-7{fill:url(#radial-gradient);}.cls-8{mix-blend-mode:multiply;fill:url(#linear-gradient-3);}.cls-9{fill:url(#linear-gradient-4);}.cls-10{fill:url(#radial-gradient-2);}.cls-11{fill:url(#radial-gradient-3);}.cls-12{fill:url(#radial-gradient-4);}</style><linearGradient id="linear-gradient" x1="44.37" y1="195.68" x2="258.91" y2="44.21" gradientUnits="userSpaceOnUse"><stop offset="0" stop-color="#2eade8"/><stop offset="1" stop-color="#3ad666"/></linearGradient><clipPath id="clip-path"><path class="cls-1" d="M242.56,60.67a103.42,103.42,0,0,0-129.5,159.26c.7-14.3,6.23-28.3,14.2-41.19,18.82-30.39,51.15-54.51,65.36-61.32-.78.29-41.17,10-72.37,36.11A67.58,67.58,0,0,1,234.93,100c5.66-11.66,10.32-23.58,13-35.65C246.21,63,244.4,61.82,242.56,60.67Z"/></clipPath><radialGradient id="radial-gradient" cx="-12.33" cy="209.87" r="195.95" gradientUnits="userSpaceOnUse"><stop offset="0" stop-color="#fff"/><stop offset="0.14" stop-color="#c0bebe"/><stop offset="0.31" stop-color="#807b7b"/><stop offset="0.46" stop-color="#4d4646"/><stop offset="0.58" stop-color="#292020"/><stop offset="0.69" stop-color="#120909"/><stop offset="0.75" stop-color="#0a0000"/></radialGradient><linearGradient id="linear-gradient-3" x1="180.04" y1="100.91" x2="268.79" y2="61.4" gradientUnits="userSpaceOnUse"><stop offset="0" stop-color="#a0a48c"/><stop offset="1" stop-color="#fff" stop-opacity="0"/></linearGradient><linearGradient id="linear-gradient-4" x1="93.99" y1="249.75" x2="319.57" y2="90.49" xlink:href="#linear-gradient"/><radialGradient id="radial-gradient-2" cx="334.81" cy="191.29" r="113.48" xlink:href="#radial-gradient"/><radialGradient id="radial-gradient-3" cx="48.77" cy="294.34" r="204.58" xlink:href="#radial-gradient"/><radialGradient id="radial-gradient-4" cx="168.42" cy="-23.24" r="125.58" xlink:href="#radial-gradient"/></defs><title>Mesa de trabajo 1</title><g class="cls-2"><g id="BACKGROUND"><rect class="cls-3" x="-40.72" y="-28.36" width="500" height="500"/></g><g id="OBJECTS"><text class="cls-4" transform="translate(87.1 360.4)">Green</text><text class="cls-5" transform="translate(51.44 395.3)">Cuidando el Planeta</text><path class="cls-1" d="M242.56,60.67a103.42,103.42,0,0,0-129.5,159.26c.7-14.3,6.23-28.3,14.2-41.19,18.82-30.39,51.15-54.51,65.36-61.32-.78.29-41.17,10-72.37,36.11A67.58,67.58,0,0,1,234.93,100c5.66-11.66,10.32-23.58,13-35.65C246.21,63,244.4,61.82,242.56,60.67Z"/><g class="cls-6"><path class="cls-7" d="M110.56,212.16a99.09,99.09,0,0,1-11.68-17.63,101.17,101.17,0,0,1-10.17-60.78A100.12,100.12,0,0,1,240.8,63.47c1.13.71,2.27,1.45,3.44,2.25a159,159,0,0,1-10.38,28.77,69.32,69.32,0,0,0-6.54-5A71,71,0,0,0,117,153.78l.5,6.42,4.93-4.13c15.08-12.63,32.51-21.42,46.59-27.15C153.69,140.83,136.21,158,124.45,177,117,189,112.38,200.78,110.56,212.16Z"/><path class="cls-8" d="M249.65,28.88c-2.72,18.63-7.93,45.29-52.6,73.07l31.53,18.39,21.07-11.63,18.72-84.84"/></g><path class="cls-9" d="M279.12,100a103,103,0,0,0-16.58-23c-.54,14.45-4.23,29.53-12.31,45.55A172.41,172.41,0,0,1,231,152s10.43-5.35,22.85-17.56a67.53,67.53,0,0,1-18.37,61.71L187.69,244c-34.29-34.29,19-86,47.24-144,5.66-11.66,10.32-23.58,13-35.65a95.37,95.37,0,0,0,1.68-35.43,91.49,91.49,0,0,1-7.09,31.79,177.93,177.93,0,0,1-17.09,31.56c-25.72,38.9-64.54,76.09-78.12,111.42-8.49,22-7.15,43.35,13.3,63.9l.16.16,26.88,26.87,73.12-73.11A103.53,103.53,0,0,0,279.12,100Z"/><path class="cls-10" d="M163,265.21c-17.61-17.69-21.6-36.88-12.56-60.37,8.26-21.48,26-43.64,44.86-67.11,11.37-14.17,23.12-28.82,32.94-43.67A187.67,187.67,0,0,0,244.5,64.64,164.11,164.11,0,0,1,232,98.51c-7.68,15.81-17.22,31.12-26.45,45.93-24.11,38.66-46.88,75.18-20.16,101.9l2.34,2.33,50.16-50.16a71,71,0,0,0,19.27-64.74l-1.25-5.9-4.31,4.23c-2.18,2.15-4.31,4.08-6.32,5.8A155.65,155.65,0,0,0,253.18,124a114.45,114.45,0,0,0,12.07-39,98.92,98.92,0,0,1,10.95,16.46,100.21,100.21,0,0,1-17.73,117.61L187.69,289.9Z"/><path class="cls-11" d="M163,265.21c-17.61-17.69-21.6-36.88-12.56-60.37,8.26-21.48,26-43.64,44.86-67.11,11.37-14.17,23.12-28.82,32.94-43.67A187.67,187.67,0,0,0,244.5,64.64,164.11,164.11,0,0,1,232,98.51c-7.68,15.81-17.22,31.12-26.45,45.93-24.11,38.66-46.88,75.18-20.16,101.9l2.34,2.33,50.16-50.16a71,71,0,0,0,19.27-64.74l-1.25-5.9-4.31,4.23c-2.18,2.15-4.31,4.08-6.32,5.8A155.65,155.65,0,0,0,253.18,124a114.45,114.45,0,0,0,12.07-39,98.92,98.92,0,0,1,10.95,16.46,100.21,100.21,0,0,1-17.73,117.61L187.69,289.9Z"/><path class="cls-12" d="M110.56,212.16a99.09,99.09,0,0,1-11.68-17.63,101.17,101.17,0,0,1-10.17-60.78A100.12,100.12,0,0,1,240.8,63.47c1.13.71,2.27,1.45,3.44,2.25a159,159,0,0,1-10.38,28.77,69.32,69.32,0,0,0-6.54-5A71,71,0,0,0,117,153.78l.5,6.42,4.93-4.13c15.08-12.63,32.51-21.42,46.59-27.15C153.69,140.83,136.21,158,124.45,177,117,189,112.38,200.78,110.56,212.16Z"/></g></g></svg>