<svg xmlns="http://www.w3.org/2000/svg" viewBox="0 0 90.84 80.93"><defs><style>.cls-1{fill:#ededed;}.cls-2{fill:#537082;}</style></defs><title>delitos_pesqueros</title><g id="Object"><path class="cls-1" d="M57.73,32.17c-4-1-8.28-.24-12.42.22a75.84,75.84,0,0,1-25.23-1.2,5.59,5.59,0,0,0-3.7,0c-1.83.89-2,3.38-1.84,5.41.48,5,2,10.1,5.51,13.66s8.65,5.1,13.63,5.16,9.88-1.27,14.62-2.8C55,50.44,62,47.34,65.17,41.09l.38-.41C65.61,36.52,61.77,33.16,57.73,32.17Z"/><path class="cls-2" d="M75.92,20.21c-2.34-3.28-8.24-2.79-10,.83-2-2.39-4.23-4.93-7.29-5.49a3.32,3.32,0,0,0-1.85.09c-1.7.69-1.83,3.23-.77,4.72s2.83,2.29,4.39,3.24,3.13,2.38,3.19,4.21l-.09.3c-14.82,0-29.4-.25-44.22-.51-8.15-.15-2.39,8.43-.1,12,2.77,4.33,6.53,7.28,11.8,7.71,3.37.28,6.73-.49,10.11-.63s7.06.5,9.35,3c1.33,1.44,2,3.36,3.33,4.84S57.36,57,59,55.83c1.91-1.39,1.16-4.35.28-6.54s-1.43-5.27.63-6.43a8.25,8.25,0,0,1,2.67-.61c4.44-.84,6.6-6.11,6.47-10.63a22.39,22.39,0,0,1,0-4.91,4.42,4.42,0,0,1,2.93-3.61c.86-.21,1.76-.05,2.63-.18s1.8-.73,1.79-1.61A2,2,0,0,0,75.92,20.21Z"/></g></svg>