<svg xmlns="http://www.w3.org/2000/svg" viewBox="0 0 120.07 80.93"><defs><style>.cls-1{fill:#517057;}.cls-2{fill:#9faf89;}.cls-3{fill:#a32121;}.cls-4{fill:#d9924e;}</style></defs><title>delitos_forestales</title><g id="Object"><path class="cls-1" d="M12.23,54.25C10,53,31.41,29.81,34.26,29.62s20.05,22.86,21.08,25.2C56.23,56.86,13.5,54.94,12.23,54.25Z"/><path class="cls-1" d="M65.64,55c-2.22-1.21,19.18-24.44,22-24.63s20,22.85,21.08,25.2C109.64,57.65,66.91,55.73,65.64,55Z"/><path class="cls-2" d="M37.64,55.47c-2.5-1,20.68-30.21,23.74-30.45s21.4,28.26,22.16,31.3C83.69,56.91,38.32,55.73,37.64,55.47Z"/><path class="cls-3" d="M62.66,40.74a13.45,13.45,0,0,1-3.4,3.13c-2.52,1.91-4.91,1.92-7.92,2.29s-6.12.16-8.67-1.67a7,7,0,0,1-1.82-1.82,8.76,8.76,0,0,1-1.13-3.35A24.6,24.6,0,0,1,40,30.15c.41-1.92.49-3,2.08-1.27,1.1,1.2,2,2.61,3.18,3.75a16.79,16.79,0,0,0,1.18-4.26,28.59,28.59,0,0,1,1-3.31c.42-1.07,1-2.08,1.41-3.14.78-1.83,1.12-3.79,1.77-5.65.81.62.95,1.44,1.44,2.25.68,1.12,1.62,2.07,2.32,3.18a21.28,21.28,0,0,1,2.91,7.47c.94-2,1.74-4.68,3.08-6.41A17.47,17.47,0,0,1,63.14,28a21.59,21.59,0,0,1,.6,3.92,19.77,19.77,0,0,1-.48,7.51A5,5,0,0,1,62.66,40.74Z"/><path class="cls-4" d="M54.7,43.68C51.47,45.06,47,44.86,45,41.5a9.92,9.92,0,0,1-1-6.24,24.16,24.16,0,0,0,3.65,2.52,43.57,43.57,0,0,0,3.82-12l5.21,8.77A12.36,12.36,0,0,0,59.34,29,8.92,8.92,0,0,1,58,41.88,15.43,15.43,0,0,1,54.7,43.68Z"/></g></svg>