<svg id="Layer_1" data-name="Layer 1" xmlns="http://www.w3.org/2000/svg" viewBox="0 0 51 51"><defs><style>.cls-1,.cls-2,.cls-3{fill:none;}.cls-2{stroke:#04c4d9;}.cls-2,.cls-3{stroke-width:3px;}.cls-3{stroke:#1d1931;}</style></defs><title>icono_izquiera_movil</title><g id="Symbol_33_5" data-name="Symbol 33 5"><g id="Rectangle_622" data-name="Rectangle 622"><path class="cls-1" d="M25.89,4.5h0a19,19,0,0,1,19,19h0a19,19,0,0,1-19,19h0a19,19,0,0,1-19-19h0A19,19,0,0,1,25.89,4.5Z"/><path class="cls-2" d="M25.89,6h0a17.5,17.5,0,0,1,17.5,17.5h0A17.51,17.51,0,0,1,25.89,41h0A17.5,17.5,0,0,1,8.39,23.5h0A17.49,17.49,0,0,1,25.89,6Z"/></g><path id="Path_4246" data-name="Path 4246" class="cls-3" d="M28.1,15.65,21,22.76l7.1,7.11"/></g></svg>