<svg id="Layer_1" data-name="Layer 1" xmlns="http://www.w3.org/2000/svg" xmlns:xlink="http://www.w3.org/1999/xlink" viewBox="0 0 110.53 114.18"><defs><style>.cls-1,.cls-3,.cls-4{fill:none;}.cls-2{clip-path:url(#clip-path);}.cls-3{stroke:#04c4d9;}.cls-3,.cls-4{stroke-miterlimit:4;stroke-width:3px;}.cls-4{stroke:#1d1931;}</style><clipPath id="clip-path"><rect class="cls-1" x="18.01" y="18.14" width="80.04" height="80.04" transform="translate(-4.53 111.42) rotate(-85.48)"/></clipPath></defs><title>icono_derecha_desk</title><g class="cls-2"><g id="Symbol_33_4" data-name="Symbol 33 4"><g id="Rectangle_622" data-name="Rectangle 622"><path class="cls-1" d="M54.87,98.05h0A40,40,0,0,1,18.13,55h0A40,40,0,0,1,61.18,18.27h0a40,40,0,0,1,36.74,43h0A40,40,0,0,1,54.87,98.05Z"/><path class="cls-3" d="M55,96.56h0A38.51,38.51,0,0,1,19.63,55.13h0A38.52,38.52,0,0,1,61.06,19.76h0A38.52,38.52,0,0,1,96.42,61.2h0A38.52,38.52,0,0,1,55,96.56Z"/></g><path id="Path_4246" data-name="Path 4246" class="cls-4" d="M53.66,70.06l12.66-10.8L55.52,46.61"/></g></g></svg>