<svg id="Layer_1" data-name="Layer 1" xmlns="http://www.w3.org/2000/svg" xmlns:xlink="http://www.w3.org/1999/xlink" viewBox="0 0 110.53 114.18"><defs><style>.cls-1,.cls-3,.cls-4{fill:none;}.cls-2{clip-path:url(#clip-path);}.cls-3{stroke:#04c4d9;}.cls-3,.cls-4{stroke-width:3px;}.cls-4{stroke:#1d1931;}</style><clipPath id="clip-path"><rect class="cls-1" x="15.69" y="18.16" width="80" height="80"/></clipPath></defs><title>icono_izquierda_desk</title><g class="cls-2"><g id="Symbol_33_3" data-name="Symbol 33 3"><g id="Rectangle_622" data-name="Rectangle 622"><path class="cls-1" d="M55.69,18.16h0a40,40,0,0,1,40,40h0a40,40,0,0,1-40,40h0a40,40,0,0,1-40-40h0A40,40,0,0,1,55.69,18.16Z"/><path class="cls-3" d="M55.69,19.66h0a38.5,38.5,0,0,1,38.5,38.5h0a38.5,38.5,0,0,1-38.5,38.5h0a38.5,38.5,0,0,1-38.5-38.5h0A38.5,38.5,0,0,1,55.69,19.66Z"/></g><path id="Path_4246" data-name="Path 4246" class="cls-4" d="M59.1,46,47.34,57.72,59.1,69.48"/></g></g></svg>