<svg id="Layer_1" data-name="Layer 1" xmlns="http://www.w3.org/2000/svg" viewBox="0 0 110.53 114.18"><defs><style>.cls-1{fill:#04bfad;}</style></defs><title>icono_adjuntar</title><g id="attachment"><g id="Group_3674" data-name="Group 3674"><path id="Path_6347" data-name="Path 6347" class="cls-1" d="M54.92,14.41A43.25,43.25,0,1,0,98.17,57.66h0A43.26,43.26,0,0,0,54.92,14.41ZM75.68,52.93,47.26,81.35h0l0,0-.17.18h0a8.51,8.51,0,0,1-5.83,2.24A10.65,10.65,0,0,1,30.84,74,8.5,8.5,0,0,1,33,67.64l0,0L61.07,39.54a6.38,6.38,0,0,1,9,.39,6.92,6.92,0,0,1,2,4.42,5.86,5.86,0,0,1-1.67,4.56L47.58,71.78l-3.17-3.17L67.27,45.74a1.36,1.36,0,0,0,.36-1.09,2.48,2.48,0,0,0-.75-1.55,2,2,0,0,0-2.64-.39L36.43,70.52h0a4,4,0,0,0-1.11,3.2A6,6,0,0,0,37.1,77.5c2.11,2.11,5.23,2.41,7,.69L72.51,49.76a6.61,6.61,0,0,0,1.83-5.24,9.34,9.34,0,0,0-2.79-5.94c-3.34-3.34-8.35-3.77-11.17-.95L36.86,61.15,33.69,58,57.21,34.46c4.57-4.57,12.43-4.13,17.52.95a13.77,13.77,0,0,1,4.1,8.81A11.09,11.09,0,0,1,75.68,52.93Z"/></g></g></svg>