<svg xmlns="http://www.w3.org/2000/svg" viewBox="0 0 90.84 80.93"><defs><style>.cls-1{fill:#727572;}.cls-2{fill:#a84749;}.cls-3{fill:#999;}.cls-4{fill:#f9ca48;}.cls-5{fill:#4f4f4f;}.cls-6{fill:#5a9b73;}.cls-7{fill:#fcee9f;}.cls-8{fill:#a32121;}</style></defs><title>delincuencia_medioambiental</title><g id="Object"><path class="cls-1" d="M40.2,44.45a5.11,5.11,0,0,0-.36-1.69,1.79,1.79,0,0,0-1.4-1.1H35.35q0-4.9,0-9.82c0-.1,0-.21,0-.32,0-2.45-.07-4.9-.08-7.35,0-1.11.06-2.23,0-3.34,0-.79-.36-.76-1.21-.92a11.82,11.82,0,0,0-3.66-.09c-.6.09-1.09.18-1.33.73a8.29,8.29,0,0,0-.2,2.29c-.08,1.51-.09,3-.14,4.53-.08,2.62-.17,5.24-.16,7.86,0,2.14,0,4.28,0,6.43H27q0-4.9,0-9.82v-.32c0-2.45-.08-4.9-.09-7.35,0-1.11.06-2.23,0-3.34,0-.79-.36-.76-1.21-.92a11.82,11.82,0,0,0-3.66-.09c-.59.09-1.09.18-1.33.73a7.92,7.92,0,0,0-.19,2.29c-.09,1.51-.1,3-.15,4.53-.07,2.62-.17,5.24-.16,7.86,0,2.14,0,4.28-.05,6.43h-.91c-1.22,0-2.44.05-3.65.15a4.72,4.72,0,0,0-.84.12c-1.91.48-1.69,2.52-1.71,4.09,0,1.36,0,2.72-.07,4.08q-.08,5.22-.17,10.45a1.94,1.94,0,0,0,.14.9c.14.28.85.68,1.14.57H30.9c0-.05.07-.17.11-.21h8.62a2.63,2.63,0,0,1,.27-1.26l-.08.19C39.28,55.33,40.65,49.87,40.2,44.45Z"/><path class="cls-2" d="M26.9,23.5a.26.26,0,0,0,.07-.15,1.46,1.46,0,0,0,0-.51c0-.21-.77-.25-1.1-.29a14.92,14.92,0,0,0-1.5-.07c-.76,0-1.52,0-2.26.06-.37,0-.74.07-1.1.12-.11,0-.37,0-.46.06s-.14.17-.16.23-.05.34.08.42.15,0,.29,0l.39-.05a8.54,8.54,0,0,1,1.6-.07l1.59.12,2.19.18C26.75,23.55,26.85,23.54,26.9,23.5Z"/><path class="cls-2" d="M26.9,22.06a.21.21,0,0,0,.07-.15,1.46,1.46,0,0,0,0-.51c0-.21-.77-.25-1.1-.28A12.45,12.45,0,0,0,24.4,21c-.76,0-1.52,0-2.26.07-.37,0-.74.07-1.1.12a3.24,3.24,0,0,0-.46.05c-.11,0-.14.17-.16.24s-.05.34.08.41.15,0,.29,0,.26,0,.39-.06a9.48,9.48,0,0,1,1.6-.07l1.59.13,2.19.17A.49.49,0,0,0,26.9,22.06Z"/><path class="cls-2" d="M35.27,23.5a.26.26,0,0,0,.07-.15,1.46,1.46,0,0,0,0-.51c0-.21-.77-.25-1.1-.29a14.92,14.92,0,0,0-1.5-.07c-.76,0-1.52,0-2.26.06-.37,0-.74.07-1.1.12-.11,0-.37,0-.46.06s-.14.17-.16.23-.05.34.08.42.15,0,.29,0l.39-.05a8.54,8.54,0,0,1,1.6-.07l1.59.12,2.18.18C35.12,23.55,35.22,23.54,35.27,23.5Z"/><path class="cls-2" d="M35.27,22.06a.21.21,0,0,0,.07-.15,1.46,1.46,0,0,0,0-.51c0-.21-.77-.25-1.1-.28a12.45,12.45,0,0,0-1.5-.08c-.76,0-1.52,0-2.26.07-.37,0-.74.07-1.1.12a3.24,3.24,0,0,0-.46.05c-.11,0-.14.17-.16.24s-.05.34.08.41.15,0,.29,0,.26,0,.39-.06a9.48,9.48,0,0,1,1.6-.07l1.59.13,2.18.17C35.12,22.12,35.22,22.1,35.27,22.06Z"/><path class="cls-3" d="M66.4,56.2a19.88,19.88,0,0,0-1.85-4.93,79.52,79.52,0,0,1-4.31-11.5l-.54-2c-.81-3.54-1-7.19-1.88-10.76a2.59,2.59,0,0,0-.33-.89,2,2,0,0,0-1-.71,8.23,8.23,0,0,0-3.35-.18c-1.45,0-2.89.09-4.33.15-2.83.12-5.66.26-8.48.45a3.82,3.82,0,0,0-1.89.45c-1,.62-1.19,1.92-1.33,3.06C35.94,38.89,31,47.48,29.66,57a14.16,14.16,0,0,0-.34,3.49c.11.94.46,1.44,1.43,1.5,1.41.07,2.82.24,4.24.27,9.74.23,19.5.46,29.23-.1a4.32,4.32,0,0,0,1.44-.26c.6-.27.65-.59.71-1.21A17.39,17.39,0,0,0,66.4,56.2Z"/><path class="cls-4" d="M55.16,43.63a7.29,7.29,0,1,1-9.75-3.36A7.3,7.3,0,0,1,55.16,43.63Z"/><path class="cls-5" d="M47.74,54a1.23,1.23,0,0,1-.72.09,3.63,3.63,0,0,1-.79-.25,11.75,11.75,0,0,1-1.48-.7A7.4,7.4,0,0,1,43.33,52c-.32-.33-.85-.74-.87-1.23,0-.25.38-.45.56-.56s.58-.28.85-.45l1.36-.88,3.33-2.14-.38,3.94,0,.55C48.07,51.81,48,52.4,48,53c0,.26,0,.52,0,.77A.33.33,0,0,1,47.74,54Z"/><path class="cls-5" d="M42.34,43a1.78,1.78,0,0,1,.28-.55,4.17,4.17,0,0,1,.49-.62,8.88,8.88,0,0,1,1.17-1,6.37,6.37,0,0,1,2.91-1.28.48.48,0,0,1,.29,0c.14.08.16.55.17.7s0,.6.08.89c.08.53.17,1.06.26,1.59l.64,3.91-3.47-1.91-.48-.27a20,20,0,0,1-2.25-1.28.43.43,0,0,1-.09-.1A.16.16,0,0,1,42.34,43Z"/><path class="cls-5" d="M54.79,50.64a.64.64,0,0,0,.32-.36,8.53,8.53,0,0,0,.83-4.1,4.13,4.13,0,0,0-.35-1.59c-.2-.41-.58-.11-.87,0s-.51.24-.78.33l-1.53.5-3.77,1.22,3.29,2.2.46.31,1.47,1C54.19,50.36,54.5,50.74,54.79,50.64Z"/><path class="cls-5" d="M50.21,46.06a1.78,1.78,0,1,1-2.38-.82A1.78,1.78,0,0,1,50.21,46.06Z"/><path class="cls-1" d="M23.57,18.11h0a.5.5,0,0,1-.5-.51,4.59,4.59,0,0,1,1.3-2.92A9.21,9.21,0,0,1,28.27,12a18.19,18.19,0,0,1,5.22-.74,21.69,21.69,0,0,0,4-.41,10.56,10.56,0,0,0,6.54-4.82.5.5,0,0,1,.68-.18.51.51,0,0,1,.18.69,11.54,11.54,0,0,1-7.17,5.28,21.6,21.6,0,0,1-4.22.44A17.22,17.22,0,0,0,28.6,13a8.27,8.27,0,0,0-3.48,2.37,3.67,3.67,0,0,0-1.05,2.27A.5.5,0,0,1,23.57,18.11Z"/><path class="cls-1" d="M30.59,18.11h0a.5.5,0,0,1-.5-.51,2.69,2.69,0,0,1,1-1.84,6.66,6.66,0,0,1,2.75-1.55,14.79,14.79,0,0,1,3.61-.43,16.88,16.88,0,0,0,2.77-.24,7.11,7.11,0,0,0,4.4-2.68.5.5,0,0,1,.82.58,8.07,8.07,0,0,1-5,3.09,18.08,18.08,0,0,1-2.92.25,13.6,13.6,0,0,0-3.37.39,5.68,5.68,0,0,0-2.33,1.31,1.87,1.87,0,0,0-.66,1.13A.5.5,0,0,1,30.59,18.11Z"/><path class="cls-6" d="M35.47,45.24c-1.39-.65-4.43.07-4.75-1-.56-1.83,2.62-6.39,3.36-10.35.68-3.67-.74-6.31,1.39-10.77s8.42-8.85,15.29-8.48,15.55,4.49,17.09,14.74c1.1,7.31-1.75,13.51-4.53,15.83s-4.87,5.16-4.22,13.7c0,2-13.32,1.71-14,1s.55-6.68-.38-6.78-8,1.39-7.61-1.11.08-4.58-1.4-4.73C34.83,47.2,35.47,45.24,35.47,45.24Z"/><path class="cls-7" d="M54.61,35.59A6.57,6.57,0,1,1,45.68,33,6.57,6.57,0,0,1,54.61,35.59Z"/><path class="cls-5" d="M48.44,45.28a1.71,1.71,0,0,1-.87,0,7.76,7.76,0,0,1-3-1.45,3.12,3.12,0,0,1-.94-1c-.11-.26.27-.41.44-.55l.63-.49,1.25-.92,2.89-2.09-.14,3.56c0,.17,0,.33,0,.5,0,.53,0,1.06-.07,1.59,0,.23,0,.47,0,.7A.28.28,0,0,1,48.44,45.28Z"/><path class="cls-5" d="M43.06,35.71a5.86,5.86,0,0,1,.26-.57,3.73,3.73,0,0,1,.41-.57,7.59,7.59,0,0,1,1.05-1.07,5.28,5.28,0,0,1,2.53-1.15.22.22,0,0,1,.18,0,.22.22,0,0,1,0,.12c.1.43.16.88.27,1.31s.2.91.3,1.36l.77,3.48-3.21-1.55-.44-.21-1.44-.7c-.23-.11-.48-.2-.72-.3l0,0s0-.05,0-.08Z"/><path class="cls-5" d="M54.62,41.91a.73.73,0,0,0,.34-.52c.15-.52.31-1,.43-1.58a5.37,5.37,0,0,0,.09-1.55c0-.24-.06-.47-.1-.71a4.51,4.51,0,0,0-.21-.88.66.66,0,0,0-.15-.22c-.18-.15-.45.07-.63.13s-.56.18-.84.25a13.46,13.46,0,0,0-1.33.51l-3.33,1.28L52,40.44l.42.25,1.38.82c.2.12.37.28.58.38A.34.34,0,0,0,54.62,41.91Z"/><path class="cls-5" d="M50.28,38a1.6,1.6,0,1,1-2.18-.62A1.61,1.61,0,0,1,50.28,38Z"/><path class="cls-8" d="M77,38.51C73.29,24.7,54.61,12.12,40.51,17.1a1.89,1.89,0,0,0-1.32,1.62C27.24,22,19.9,34.9,22.14,47.06,24.81,61.5,39.4,71.91,53.67,71.78,62,71.71,68.58,66,73.35,59.65S79,46,77,38.51ZM40,20.73a1.85,1.85,0,0,0,1.93.3c8.61-3.2,18.74,1.3,25.5,8.11q-9.16,6.44-18.16,13.1c-3.22,2.4-6.41,4.84-9.59,7.29s-7,4.82-9.45,8a.71.71,0,0,0-.1.14,29.1,29.1,0,0,1-5-9.25C21.54,37.12,28.55,23.78,40,20.73ZM53.48,69c-8.26.56-16.35-3.49-22-9.62,3.29-1.42,6.1-4.08,9-6.2q4.84-3.57,9.72-7.1Q60,39,70.1,32.23a26,26,0,0,1,3.63,6.26C79,51.85,67.37,68,53.48,69Z"/></g></svg>