<svg xmlns="http://www.w3.org/2000/svg" viewBox="0 0 90.84 80.93"><defs><style>.cls-1{fill:#97a8b2;}.cls-2{fill:#5e625e;}.cls-3{fill:#6b7c84;}</style></defs><title>delitos_vida_animal</title><g id="Object"><path class="cls-1" d="M32,18.43A11.11,11.11,0,0,1,37.28,17c2.69-.16,5.55.07,7.81,1.55A8,8,0,0,1,48,21.91c1.95,4.24-.08,9.43,1.55,13.8a8.83,8.83,0,0,0,5.39,5.18c3.27,1.08,7,.17,10.18,1.42A23.41,23.41,0,0,1,54.32,54.72a19.73,19.73,0,0,1-16.23,1A17.11,17.11,0,0,1,27.67,43.48a26,26,0,0,1-.37-5.22,76.59,76.59,0,0,1,1.1-12C28.87,23.45,29.3,20.09,32,18.43Z"/><path class="cls-2" d="M29.21,21.79a12.38,12.38,0,0,0-2.4,2c-.3.27-.61.55-.9.84s.11.32.47.35a11.85,11.85,0,0,1,1.31.2c.53.1,1.06.23,1.59.33a1.67,1.67,0,0,0,1.35-.08,2.13,2.13,0,0,0,.94-2.27A1.8,1.8,0,0,0,29.21,21.79Z"/><path class="cls-3" d="M46.94,50.31a2.79,2.79,0,0,1-.87-.06c-1.74-.36-3.92-.8-5.46-2.23a11,11,0,0,1-2.17-3.3l-1.78-3.64a.5.5,0,1,1,.89-.44l1.79,3.64a10.2,10.2,0,0,0,1.95,3c1.33,1.24,3.36,1.65,5,2,.49.1.62,0,.66,0a.88.88,0,0,0,.09-.4l.21-2.28a.48.48,0,0,1,.19-.35.48.48,0,0,1,.38-.1l3.32.5a9.16,9.16,0,0,0,3.61.07,2.84,2.84,0,0,0,2.21-2.1.5.5,0,0,1,.56-.43.49.49,0,0,1,.43.56,3.79,3.79,0,0,1-3,2.94,10.37,10.37,0,0,1-4-.05l-2.79-.42L48,49a1.64,1.64,0,0,1-.34,1A1.21,1.21,0,0,1,46.94,50.31Z"/></g></svg>