<svg xmlns="http://www.w3.org/2000/svg" viewBox="0 0 168.78 80.93"><defs><style>.cls-1{fill:#4e4e4e;}.cls-2{fill:#8b2626;}.cls-3{fill:#d9d9d9;}.cls-4{fill:#699051;}.cls-5{fill:#944b4e;}.cls-6{fill:#f7eca1;}.cls-7{fill:#505050;}</style></defs><title>delitos_contaminación</title><g id="Object"><g id="Group_3520" data-name="Group 3520"><g id="Group_3519" data-name="Group 3519"><path id="Path_6053" data-name="Path 6053" class="cls-1" d="M78.2,13.46c-3,.06-5.37,1.68-8.21,2.25-3.88.76-7.48-2.93-10.47-4.82a9.73,9.73,0,0,0-7.88-1.56,5.36,5.36,0,0,0-4,4.51.88.88,0,0,0,.81.93.89.89,0,0,0,.87-.54c1.07-3.24,4.44-3.58,7.25-2.49s4.89,3.27,7.37,4.71a10.44,10.44,0,0,0,6.48,1.46c2.75-.3,5.12-2.06,7.91-2.33C79.47,15.46,79.41,13.44,78.2,13.46Z"/><path id="Path_6054" data-name="Path 6054" class="cls-1" d="M51.38,6.79c1.2-2.94,4.85-3.18,7.53-2.49s4.32,3.12,6.34,4.93c2.46,2.21,6.31,3.82,8.92.93.83-.91-.59-2-1.48-1.38-3,2.05-5.61-.67-7.63-2.72a13.09,13.09,0,0,0-5.45-3.6c-3.45-1.12-8.54-.12-9.7,3.77a.78.78,0,0,0,.5,1A.79.79,0,0,0,51.38,6.79Z"/><path id="Path_6055" data-name="Path 6055" class="cls-1" d="M61.17,40.33c-.79-.57-2.16-.47-3.07-.57l-4.41-.48a40.32,40.32,0,0,0-5.15-.3q.49-10.75,1-21.5c-1.41-.14-2.42.08-3.83-.06q-1.75,11-2.84,22.11-2.57.53-5.13,1.11a8.37,8.37,0,0,0-.28-2.39c-.2-.7-.52-1.32-.7-2-.45-1.79.1-3.73.3-5.64l1.42.11a4.42,4.42,0,0,0,.14-1.49c-1.05-.1-1.54-.2-2.31-.28-1.74-.19-3.5-.3-5.25-.39,0,.47-.29.93-.14,1.41l1,.12a3.41,3.41,0,0,0-.1.46,46.38,46.38,0,0,1-1.15,6.07c-.3.94-.7,1.84-1,2.8a20.48,20.48,0,0,0-.54,3.48c-1.33.41-2.66.85-4,1.33v-.26a11.21,11.21,0,0,0-.35-3.31c-.22-.68-.56-1.3-.76-2-.52-1.85,0-3.88.16-5.87l1.65.13A4.39,4.39,0,0,0,26,31.4c-1-.1-1.53-.19-2.3-.28-1.74-.19-3.5-.29-5.25-.39,0,.48-.28.93-.13,1.41l.88.1a2.91,2.91,0,0,0-.21.82,45.07,45.07,0,0,1-1,6.1c-.27,1-.64,1.86-.88,2.83a20.37,20.37,0,0,0-.46,3.64l-.36,5.29h0a20.08,20.08,0,0,0-.2,5.74c6.15.67,13,1.38,19.72,1.83l22.06,2.37a1.38,1.38,0,0,0,1.45-.9,112,112,0,0,0,2.8-15.42C62.36,42.84,62.68,41.41,61.17,40.33ZM37.76,45.61l-.16,0,.79-.17Z"/></g><path id="Path_6056" data-name="Path 6056" class="cls-2" d="M73,39.32C69,24.41,48.79,10.81,33.56,16.2a2,2,0,0,0-1.43,1.74C19.22,21.43,11.29,35.42,13.71,48.56c2.88,15.61,18.65,26.86,34.07,26.72,9-.08,16.11-6.28,21.27-13.1S75.17,47.39,73,39.32ZM33,20.11a2,2,0,0,0,2.09.33C44.35,17,55.3,21.84,62.6,29.2Q52.7,36.14,43,43.36q-5.22,3.9-10.37,7.88c-3.4,2.62-7.61,5.21-10.21,8.65a.86.86,0,0,0-.1.16,31.38,31.38,0,0,1-5.39-10C13.06,37.83,20.63,23.41,33,20.11ZM47.57,72.25c-8.92.61-17.66-3.76-23.72-10.39,3.55-1.54,6.59-4.41,9.69-6.7q5.24-3.85,10.5-7.67,10.62-7.65,21.5-14.94a28.46,28.46,0,0,1,3.92,6.75c5.69,14.44-6.88,31.93-21.89,33Z"/></g><g id="Group_3539" data-name="Group 3539"><path id="Path_6077" data-name="Path 6077" class="cls-3" d="M141.64,20.91c-.5-.76-1.92-.9-4.61-1.08-.32-2-1-4.2-2.5-4.38-.87-.1-4.9,0-9,0l-1.87,0c-1.94,0-2.58,3-2.78,4.41-.78,0-3,.25-3.55.28-2.75.14-3.93,7.62-4.28,14.06-.09,1.59,29.24,1.16,31.1.52C145.13,34.46,143.18,23.27,141.64,20.91Zm-18.59-1.09a5.48,5.48,0,0,1,.79-2.22l1.77,0c2.43,0,7.38-.13,8.52-.05a8.08,8.08,0,0,1,.71,2.3C131.1,19.71,126.63,19.68,123.05,19.82Z"/><path id="Path_6078" data-name="Path 6078" class="cls-3" d="M113.08,35.67c.27-.18,7.86.51,15.92.53,5,0,14.9-.43,15.43-.53s-2.17,33.12-2.52,34.24-25.09.64-25.79.29S112.23,36.27,113.08,35.67Z"/><g id="Group_3538" data-name="Group 3538"><path id="Path_6079" data-name="Path 6079" class="cls-4" d="M124.57,47.65h.1c.36,0,.77.1,1.14.16s.5.07.73.12h0a2.44,2.44,0,0,0,.44.13h0l.31,0a.84.84,0,0,0,.41-.08,1.28,1.28,0,0,0,.29-.23l.22-.23c.27-.25.57-.48.87-.73l.38-.36a1.56,1.56,0,0,1,.28-.23,8.14,8.14,0,0,1,.57,1.66h-.53a3.29,3.29,0,0,0-.88.09.17.17,0,0,0-.13.14.18.18,0,0,0-.09.21.19.19,0,0,0,.23.12h0l.11,0a1.81,1.81,0,0,1,.27.18,1.87,1.87,0,0,0,.29.2c.44.25.88.62,1.36.9.22.13.57.33.9.56.15.11.29.23.43.35a1,1,0,0,1,.24.33.19.19,0,0,0,.24.1.19.19,0,0,0,.1-.1l.08-.05.26-.28c.16-.17.37-.37.56-.55s.38-.36.5-.49a6.09,6.09,0,0,0,.68-.84,4.17,4.17,0,0,0,.26-.46,1.11,1.11,0,0,0,.12-.43.08.08,0,0,0,0-.07v-.07a.18.18,0,0,0-.16-.2l-.18,0q-.36,0-.72,0a4.57,4.57,0,0,1-.64,0,1.6,1.6,0,0,1-.23,0,3.68,3.68,0,0,0-.17-.73,6.77,6.77,0,0,1-.22-.77c0-.27-.09-.53-.15-.78a3.55,3.55,0,0,0-.29-.79c0-.09-.08-.17-.11-.26s-.13-.36-.21-.53a1.08,1.08,0,0,0-.12-.24.7.7,0,0,0-.18-.2h0a.78.78,0,0,0-.37-.09,4.93,4.93,0,0,0-.55,0l-.42,0c-.4,0-.78,0-1.14,0h0c-.14,0-.3,0-.48,0a2,2,0,0,0-.34,0,.2.2,0,0,0-.14.19c-.85.78-1.66,1.62-2.45,2.45a6.49,6.49,0,0,1-.73.66q-.42.33-.81.69a.16.16,0,0,0-.06.13.19.19,0,0,0,0,.08A.17.17,0,0,0,124.57,47.65Z"/><path id="Path_6080" data-name="Path 6080" class="cls-4" d="M138.34,56.13c-.47-1.19-1.05-2.38-1.62-3.55a6.73,6.73,0,0,1-.4-1c-.12-.37-.25-.74-.4-1.1a.24.24,0,0,0-.1-.1l-.07-.06a.2.2,0,0,0-.25.09,7.81,7.81,0,0,1-.69,1c-.14.2-.29.4-.44.59l-.15.14a1.12,1.12,0,0,0-.18.2h0c-.06.08-.11.16-.16.24a.85.85,0,0,0-.11.34.41.41,0,0,0,0,.11,1.29,1.29,0,0,0,.12.38,2.87,2.87,0,0,1,.15.32c.16.38.29.77.43,1.17.06.17.15.36.23.54l.1.24,0,.1a10.62,10.62,0,0,1-2.1-.37c.06-.16.13-.32.21-.49a3.23,3.23,0,0,0,.29-.86.17.17,0,0,0-.1-.18.18.18,0,0,0-.16-.17.19.19,0,0,0-.2.17h0s0,0-.07.06a1.82,1.82,0,0,1-.31.16,2.17,2.17,0,0,0-.35.15c-.45.27-1,.48-1.54.76a9.85,9.85,0,0,1-.95.5,5,5,0,0,1-.54.21,1.49,1.49,0,0,1-.47.07h-.06a.18.18,0,0,0-.2.16.19.19,0,0,0,.06.16.36.36,0,0,0,0,.1c.1.17.27.54.43.9s.33.75.44,1a8,8,0,0,0,.65,1.09,4.63,4.63,0,0,0,.4.48,1.43,1.43,0,0,0,.42.31h0l0,0A.18.18,0,0,0,131,60h0a4.09,4.09,0,0,0,.4-.94,2.78,2.78,0,0,1,.33-.67,4.4,4.4,0,0,0,.88.24,7.77,7.77,0,0,1,.93.21,6.69,6.69,0,0,0,1.86.42h0c.11,0,.3,0,.52.07s.42.06.64.08h.21a.66.66,0,0,0,.2-.06.68.68,0,0,0,.26-.27,2.66,2.66,0,0,0,.21-.53c0-.09,0-.17.08-.24a.85.85,0,0,1,.06-.17c.2-.38.3-.75.48-1.07,0-.1.13-.2.2-.32a1.08,1.08,0,0,0,.17-.43A.17.17,0,0,0,138.34,56.13Z"/><path id="Path_6081" data-name="Path 6081" class="cls-4" d="M127.49,57.1a6.89,6.89,0,0,1-.34-.66l-.06-.2A.72.72,0,0,0,127,56h0a1.69,1.69,0,0,0-.17-.29.66.66,0,0,0-.33-.26,1.27,1.27,0,0,0-.34-.05h-.4c-.42,0-.83-.08-1.25-.14h-.24l-.32,0-.28,0-.11,0a10.6,10.6,0,0,1,1.27-1.72c.12.13.23.27.34.41a3.28,3.28,0,0,0,.65.64.25.25,0,0,0,.34,0,.25.25,0,0,0,0-.35l0,0h0a.36.36,0,0,1,0-.1.74.74,0,0,1,0-.21c0-.12,0-.24,0-.36v-.15c0-.52,0-1.15,0-1.72a10.85,10.85,0,0,1,0-1.14,3.68,3.68,0,0,1,.07-.58,1.4,1.4,0,0,1,.16-.43.18.18,0,0,0-.05-.25h0a.21.21,0,0,0-.17,0,.19.19,0,0,0-.1,0c-.19,0-.55,0-.93,0l-.72,0-.43,0a7.77,7.77,0,0,0-1.27.1,4,4,0,0,0-.6.15,1.11,1.11,0,0,0-.46.23l0,0,0,0a.18.18,0,0,0-.06.26,4.08,4.08,0,0,0,.66.78,2.67,2.67,0,0,1,.46.59A4,4,0,0,0,122,52c-.19.26-.39.5-.6.74a6.93,6.93,0,0,0-1.21,1.49l-.18.27-.37.54-.15.27a.79.79,0,0,0-.08.26v0a.64.64,0,0,0,.14.35,2.19,2.19,0,0,0,.38.42,2.91,2.91,0,0,1,.3.31c.25.34.54.6.75.9.06.09.12.2.19.32a1,1,0,0,0,.31.35.18.18,0,0,0,.24,0l.92.05c1,0,2,0,3,.06H126a7.43,7.43,0,0,1,.81.09,9.41,9.41,0,0,0,1.05.11.17.17,0,0,0,.13,0l.08,0a.18.18,0,0,0,0-.26h0A8.75,8.75,0,0,1,127.49,57.1Z"/></g></g><g id="Group_3541" data-name="Group 3541"><path id="Path_6082" data-name="Path 6082" class="cls-5" d="M105.38,20.81c-.49-.75-1.89-.88-4.53-1.06-.32-1.94-1-4.12-2.46-4.3-.85-.1-4.81,0-8.8,0l-1.83,0c-1.91,0-2.54,2.94-2.74,4.34-.76,0-2.9.25-3.48.27-2.7.14-3.87,7.49-4.21,13.81-.09,1.57,28.73,1.14,30.55.52C108.8,34.12,106.89,23.14,105.38,20.81ZM87.12,19.75a5.52,5.52,0,0,1,.77-2.19l1.73,0c2.4-.05,7.25-.13,8.38-.06a8.19,8.19,0,0,1,.7,2.27c-3.67-.11-8.07-.15-11.58,0Z"/><path id="Path_6083" data-name="Path 6083" class="cls-5" d="M77.33,35.31c.25-.18,7.71.5,15.63.52,4.88,0,14.63-.42,15.16-.52S106,67.84,105.64,68.94s-24.65.63-25.33.29S76.49,35.9,77.33,35.31Z"/><g id="Group_3540" data-name="Group 3540"><path id="Path_6084" data-name="Path 6084" class="cls-6" d="M100.81,47.91A9.35,9.35,0,1,1,88.1,44.29h0A9.34,9.34,0,0,1,100.81,47.91Z"/><path id="Path_6085" data-name="Path 6085" class="cls-7" d="M92,61.71a2.15,2.15,0,0,1-1.23-.06,11.05,11.05,0,0,1-4.32-2,4.39,4.39,0,0,1-1.32-1.49c-.16-.37.38-.59.61-.78l.9-.7,1.79-1.31,4.11-3-.21,5.08c0,.23,0,.47,0,.7,0,.76-.07,1.52-.1,2.27,0,.33.05.67,0,1A.39.39,0,0,1,92,61.71Z"/><path id="Path_6086" data-name="Path 6086" class="cls-7" d="M84.36,48.08c.12-.27.23-.55.37-.8a5.24,5.24,0,0,1,.59-.81,10.34,10.34,0,0,1,1.5-1.53,7.61,7.61,0,0,1,3.6-1.64.22.22,0,0,1,.3.1.17.17,0,0,1,0,.1c.15.62.23,1.26.39,1.87s.28,1.29.43,1.93l1.09,5-4.57-2.22-.64-.3-2-1c-.33-.16-.68-.29-1-.43l-.06,0a.13.13,0,0,1,0-.12Z"/><path id="Path_6087" data-name="Path 6087" class="cls-7" d="M100.83,56.91c.3-.13.39-.45.48-.73.22-.75.44-1.5.61-2.26a7.82,7.82,0,0,0,.14-2.21c0-.33-.09-.67-.14-1a5.86,5.86,0,0,0-.31-1.25.83.83,0,0,0-.2-.32c-.26-.22-.65.09-.91.18s-.79.25-1.19.36c-.64.21-1.28.45-1.9.72l-4.74,1.83L97,54.82l.6.36,2,1.16c.28.17.53.4.82.55A.49.49,0,0,0,100.83,56.91Z"/><path id="Path_6088" data-name="Path 6088" class="cls-7" d="M94.64,51.37a2.28,2.28,0,1,1-3.1-.88h0A2.28,2.28,0,0,1,94.64,51.37Z"/></g></g></g></svg>