<svg xmlns="http://www.w3.org/2000/svg" viewBox="0 0 213.68 80.93"><defs><style>.cls-1{fill:#878787;}.cls-2{fill:#b4cbd8;}.cls-3{fill:#c4dded;}.cls-4{fill:#ededee;}.cls-5{fill:#658cb1;}.cls-6{fill:#759dbb;}.cls-7{fill:#fff;}.cls-8{fill:#353a2f;}.cls-9{fill:#618568;}.cls-10{fill:#709175;}.cls-11{fill:#ebc854;}.cls-12{fill:#d0a830;}.cls-13{fill:#d9d9d9;}.cls-14{fill:#b8b8b8;}.cls-15{fill:#84b279;}.cls-16{fill:#d3e3f0;}.cls-17{fill:#7ca5db;}.cls-18{fill:#c69053;}.cls-19{fill:#554346;}.cls-20{fill:#fbfbfb;}.cls-21{fill:#b6ada4;}.cls-22{fill:#928475;}.cls-23{fill:#699051;}</style></defs><title>mala_gestión_residuos</title><g id="Object"><g id="Group_3556" data-name="Group 3556"><g id="Group_3542" data-name="Group 3542"><path id="Path_6089" data-name="Path 6089" class="cls-1" d="M46.92,34.25c-.2,0-2.48-.16-4.07-.16.09-.84,0-8.33-.1-8.41a2.65,2.65,0,0,0-1,0c-.14.27-.18,7.57-.1,8.43-1.53,0-3.67.23-3.88.26s-1-.41-1.46.6c-.38.84.42.72,1.23.76.57,0,8.85,0,9.7-.06s1.6-.05,1.24-.75C47.77,33.6,47.33,34.32,46.92,34.25Z"/><path id="Path_6090" data-name="Path 6090" class="cls-2" d="M32.78,13.17c-1.29.32-7.21,12.69-4.82,13.16,3.12.6,27.27.43,28.35,0s-3.79-12.9-5.69-13.26S34.58,12.72,32.78,13.17Z"/><path id="Path_6091" data-name="Path 6091" class="cls-3" d="M33.21,13.62c-1.23.3-6.88,11.81-4.6,12.25,3,.56,26,.41,27,0S52,13.9,50.21,13.57,34.92,13.21,33.21,13.62Z"/><path id="Path_6092" data-name="Path 6092" class="cls-4" d="M55.05,22.49a45.57,45.57,0,0,0-4.82,0c-.25-.84-.59-1.91-.87-2.88,2.27,0,3.75,0,4.19,0a1.75,1.75,0,0,0,.4,0s0,0,0-.13-.06-.23-.1-.23c-.47,0-2.15-.06-4.53-.08-.25-.88-.5-1.94-.75-2.82,2.17,0,3.7-.06,3.95-.06,0,0-.06,0-.11-.09s-.1-.24-.16-.24c-.22,0-1.68,0-3.82.05-.27-1-.49-1.8-.72-2.64,0-.06-.13,0-.35,0s-.12-.06-.1,0,.31,1.14.73,2.65l-3.71,0c-.13-1.62-.2-2.7-.2-2.74s-.15,0-.32,0-.13,0-.13,0,.08,1.14.2,2.74H40.35c.16-1.59.26-2.71.26-2.73a1.29,1.29,0,0,0-.34,0c-.23,0-.12,0-.12,0-.1.85-.16,1.74-.26,2.72H36.21c.46-1.51.79-2.64.8-2.66a1.58,1.58,0,0,0-.33,0c-.17,0-.17,0-.18,0-.23.83-.5,1.68-.8,2.64h-.42l-3.87,0c-.09,0-.08.08-.15.22s0,.1,0,.1c.2,0,1.64,0,3.76.06l.64-.06c-.26.86-.63,1.93-.9,2.79-2.56,0-4.7-.05-4.89,0s-.08.07-.13.22-.06.12,0,.12c.19,0,2.11,0,4.94,0-.33,1-.73,2.17-1,3.06-1.8,0-3.58-.05-5.08-.09,0,0,0,.05-.1.24s0,.11,0,.11c1.47.07,3.3.06,5.05.07a23.29,23.29,0,0,1-1.27,3.25.9.9,0,0,0,.28,0c.06,0,.28,0,.3,0A17.68,17.68,0,0,0,34,22.91l3,0H39.1a22,22,0,0,1-.59,3.32s.08,0,.17,0a1.17,1.17,0,0,0,.34,0c.08-.12.17-.08.58-3.29l4.9,0c.16,1.24.33,2.43.52,3.32,0,0,.07,0,.16,0a1.05,1.05,0,0,0,.31,0c-.18-.88-.37-2.1-.53-3.31l2,0,3,0c1,3.24,1,3.16,1.1,3.28s.13,0,.24,0,.24,0,.23,0a24.94,24.94,0,0,1-1.12-3.25c2.47,0,4.56,0,4.83,0,0,0,0,0-.07-.15A.69.69,0,0,0,55.05,22.49ZM45.21,16.4h2.85c.23.82.48,1.89.75,2.82l-4.3,0c-.09-.93-.16-2-.23-2.78Zm-1.34,0c.06.8.08,1.87.17,2.81l-4,0c.1-.91.25-2,.33-2.79Zm-7.7,0,3.78,0c-.09.86-.3,1.93-.4,2.79l-3.31,0h-1c.28-.92.68-2,.92-2.79Zm-2,6.18c.25-.76.55-1.69.9-2.81,0,0,0-.24.06-.27.37,0,.76,0,1.16,0,1,0,2.17,0,3.26,0-.12,1-.26,2.18-.37,3.07l-5,0Zm5.49,0c.1-.78.2-1.72.32-2.86,0,0,0-.18,0-.19,1.3,0,2.77,0,4.08,0,.1.94.22,2.09.34,3l-4.77,0Zm7.27-.05-2,0c-.12-.93-.23-2.05-.33-3l4.39,0a1.23,1.23,0,0,0,0,.19c.31,1.08.6,2,.82,2.74l-2.86,0Z"/></g><g id="Group_3544" data-name="Group 3544"><g id="Group_3543" data-name="Group 3543"><path id="Path_6093" data-name="Path 6093" class="cls-5" d="M185.09,37.42q-.79,8.3-1.22,16.62c-.13,2.52,0,5.18-.33,7.68-.29,2.09,0,4.21-.31,6.33-.27,1.83-1,1.7-2.61,1.7H163.39c-.07,0-.16-.07-.21,0q-1.45-15.84-3.08-31.64c0-.43-.34-.69-.55-1.07a3.83,3.83,0,0,1-.33-1.92,14.13,14.13,0,0,1,.47-4.14,27,27,0,0,1,2.25-5c.71-1.27,1.34-3,2.75-3.65a7.35,7.35,0,0,1,2.4-.5,66.55,66.55,0,0,1,7.86-.2c2.18.08,4.52.34,6.13,1.8s2.06,3.48,3.15,5.2a11.62,11.62,0,0,1,1.35,2.27,7.87,7.87,0,0,1,.08,3.38C185.57,35.33,185.91,36.6,185.09,37.42Z"/><path id="Path_6094" data-name="Path 6094" class="cls-6" d="M187.33,34.85l0,0c-.56.87-2.24.61-3.1.61H170c-2.3,0-4.59-.07-6.89-.07-.9,0-1.83,0-2.72.06-.71.05-1.53.28-2.17-.17s-.6-2-.6-2.8a2.35,2.35,0,0,1,.16-1c.45-1,1.89-.65,2.73-.66,1.2,0,2.39,0,3.58-.07,2.33-.06,4.66-.12,7-.12h9.23c1.29,0,2.57-.11,3.85-.13.81,0,2.42-.21,3,.6a2.05,2.05,0,0,1,.3,1,13.56,13.56,0,0,1,.08,1.91A1.61,1.61,0,0,1,187.33,34.85Z"/><path id="Path_6095" data-name="Path 6095" class="cls-7" d="M168.51,25h8.18c.95,0,1.19,1.66.67,2.46a1.07,1.07,0,0,1-.46.41,1.18,1.18,0,0,1-.42.1q-3.36.45-6.75.6a2.74,2.74,0,0,1-2.07-.48,1.55,1.55,0,0,1-.32-1.63C167.55,25.88,168,25.12,168.51,25Z"/><path id="Path_6096" data-name="Path 6096" class="cls-8" d="M161.14,61.77a1,1,0,0,0-.54.26,1.32,1.32,0,0,0-.21,1l.45,5.21a4.12,4.12,0,0,0,.71,2.4,1.15,1.15,0,0,0,1.14.46c.52-.16.71-.77.81-1.3a40,40,0,0,0,.45-5.36,4.68,4.68,0,0,0-.13-1.58A2.21,2.21,0,0,0,161.14,61.77Z"/><path id="Path_6097" data-name="Path 6097" class="cls-8" d="M185.38,61.77a1,1,0,0,1,.53.26,1.28,1.28,0,0,1,.21,1l-.44,5.21a4.2,4.2,0,0,1-.72,2.4,1.14,1.14,0,0,1-1.14.46c-.52-.16-.71-.77-.81-1.3a38.36,38.36,0,0,1-.44-5.36,4.44,4.44,0,0,1,.13-1.58A2.21,2.21,0,0,1,185.38,61.77Z"/></g></g><g id="Group_3546" data-name="Group 3546"><g id="Group_3545" data-name="Group 3545"><path id="Path_6098" data-name="Path 6098" class="cls-9" d="M117.08,37.47q-.8,8.31-1.23,16.63c-.13,2.52,0,5.18-.32,7.68-.29,2.09,0,4.21-.32,6.32-.27,1.83-1,1.7-2.6,1.7H95.38c-.07,0-.17-.07-.21,0Q93.7,54,92.09,38.16c0-.42-.34-.69-.55-1.06a3.84,3.84,0,0,1-.34-1.92A13.77,13.77,0,0,1,91.68,31a27,27,0,0,1,2.25-5c.71-1.27,1.34-3,2.75-3.65a7.3,7.3,0,0,1,2.4-.5,64.43,64.43,0,0,1,7.86-.2c2.17.08,4.52.34,6.13,1.8s2.05,3.48,3.15,5.2A12.14,12.14,0,0,1,117.57,31a7.87,7.87,0,0,1,.08,3.38C117.55,35.39,117.89,36.66,117.08,37.47Z"/><path id="Path_6099" data-name="Path 6099" class="cls-10" d="M119.31,34.91v0c-.56.87-2.25.6-3.1.6H102c-2.29,0-4.58-.07-6.88-.07-.9,0-1.83,0-2.73.07a3.18,3.18,0,0,1-2.17-.18c-.76-.54-.6-2-.6-2.79a2.38,2.38,0,0,1,.17-1c.45-1,1.89-.65,2.73-.66,1.19,0,2.38,0,3.58-.07,2.33-.06,4.66-.12,7-.12h9.23c1.28,0,2.56-.11,3.84-.13.82,0,2.43-.21,3,.6a2.16,2.16,0,0,1,.3,1,15.34,15.34,0,0,1,.08,1.91A1.62,1.62,0,0,1,119.31,34.91Z"/><path id="Path_6100" data-name="Path 6100" class="cls-7" d="M100.5,25h8.17c1,0,1.19,1.66.67,2.46a1,1,0,0,1-.45.42,2.13,2.13,0,0,1-.42.1q-3.36.45-6.75.6a2.72,2.72,0,0,1-2.07-.49,1.53,1.53,0,0,1-.32-1.63C99.54,25.94,99.93,25.18,100.5,25Z"/><path id="Path_6101" data-name="Path 6101" class="cls-8" d="M93.12,61.82a1,1,0,0,0-.53.26,1.28,1.28,0,0,0-.21,1c.15,1.74.29,3.48.44,5.21a4.18,4.18,0,0,0,.72,2.4,1.11,1.11,0,0,0,1.14.46c.52-.15.71-.77.81-1.3a38.36,38.36,0,0,0,.44-5.36A4.39,4.39,0,0,0,95.8,63,2.21,2.21,0,0,0,93.12,61.82Z"/><path id="Path_6102" data-name="Path 6102" class="cls-8" d="M117.36,61.82a1,1,0,0,1,.54.26,1.32,1.32,0,0,1,.21,1l-.45,5.21a4.17,4.17,0,0,1-.71,2.4,1.12,1.12,0,0,1-1.14.46c-.52-.15-.71-.77-.81-1.3a40,40,0,0,1-.45-5.36,4.62,4.62,0,0,1,.13-1.57A2.22,2.22,0,0,1,117.36,61.82Z"/></g></g><g id="Group_3548" data-name="Group 3548"><g id="Group_3547" data-name="Group 3547"><path id="Path_6103" data-name="Path 6103" class="cls-11" d="M150.89,37.47q-.79,8.31-1.22,16.63c-.13,2.52,0,5.18-.33,7.68-.28,2.09,0,4.21-.31,6.32-.27,1.83-1,1.7-2.61,1.7H129.19c-.07,0-.16-.07-.2,0Q127.52,54,125.91,38.16c0-.42-.35-.69-.56-1.06a3.83,3.83,0,0,1-.33-1.92,14.09,14.09,0,0,1,.47-4.14,27.71,27.71,0,0,1,2.25-5c.71-1.27,1.34-3,2.75-3.65a7.35,7.35,0,0,1,2.4-.5,64.59,64.59,0,0,1,7.87-.2c2.17.08,4.51.34,6.13,1.8s2.05,3.48,3.14,5.2A12.19,12.19,0,0,1,151.39,31a8.2,8.2,0,0,1,.08,3.38C151.37,35.39,151.71,36.66,150.89,37.47Z"/><path id="Path_6104" data-name="Path 6104" class="cls-12" d="M153.13,34.91l0,0c-.56.87-2.24.6-3.1.6H135.77c-2.29,0-4.59-.07-6.89-.07-.9,0-1.83,0-2.72.07-.71.05-1.53.28-2.17-.18s-.6-2-.6-2.79a2.38,2.38,0,0,1,.17-1c.44-1,1.89-.65,2.73-.66,1.19,0,2.38,0,3.57-.07,2.33-.06,4.67-.12,7-.12h9.24c1.28,0,2.56-.11,3.84-.13.82,0,2.42-.21,3,.6a2.28,2.28,0,0,1,.3,1,17.54,17.54,0,0,1,.08,1.91A1.74,1.74,0,0,1,153.13,34.91Z"/><path id="Path_6105" data-name="Path 6105" class="cls-7" d="M134.32,25h8.17c.95,0,1.19,1.67.67,2.47a1.11,1.11,0,0,1-.45.41,2.13,2.13,0,0,1-.42.1q-3.36.45-6.75.6a2.72,2.72,0,0,1-2.07-.49,1.55,1.55,0,0,1-.33-1.63C133.36,25.94,133.75,25.18,134.32,25Z"/><path id="Path_6106" data-name="Path 6106" class="cls-8" d="M126.94,61.82a1.15,1.15,0,0,0-.53.26,1.29,1.29,0,0,0-.21,1l.44,5.21a4.18,4.18,0,0,0,.72,2.4,1.13,1.13,0,0,0,1.14.46c.52-.15.71-.77.81-1.3a38.36,38.36,0,0,0,.44-5.36,4.15,4.15,0,0,0-.13-1.57A2.21,2.21,0,0,0,126.94,61.82Z"/><path id="Path_6107" data-name="Path 6107" class="cls-8" d="M151.18,61.82a1.09,1.09,0,0,1,.54.26,1.33,1.33,0,0,1,.2,1c-.15,1.74-.29,3.48-.44,5.21a4.25,4.25,0,0,1-.71,2.4,1.13,1.13,0,0,1-1.15.46c-.51-.15-.71-.77-.8-1.3a36.91,36.91,0,0,1-.45-5.36A4.37,4.37,0,0,1,148.5,63,2.21,2.21,0,0,1,151.18,61.82Z"/></g></g><g id="Group_3555" data-name="Group 3555"><g id="Group_3549" data-name="Group 3549"><path id="Path_6108" data-name="Path 6108" class="cls-13" d="M60.78,27c-.41,1.15-5.79,19.21-5.41,19.5.54.42,13.17,4.63,13.7,3.67s5.4-18.67,5.46-19.25S60.88,26.71,60.78,27Z"/><path id="Path_6109" data-name="Path 6109" class="cls-14" d="M60.79,27.2c-.22-.06,1-4.22,1.52-4.24a36.61,36.61,0,0,1,3.89.76c.38.11.7-1.33.7-1.33s.72-.8,1.09-.8a15.09,15.09,0,0,1,2.57.73,3.57,3.57,0,0,1,.58,1.21c0,.23-.44,1.4,0,1.6s4.22,1.23,4.25,1.62-.84,4.33-1,4.28Z"/><path id="Path_6110" data-name="Path 6110" class="cls-15" d="M65.93,32.89a10,10,0,0,1,2.28.69c.26.15-3.24,3.34-3.48,4.22-.13.43,2.84.8,3,1.23s-4.12,4.13-5.12,5.11,2.59-4.29,1.9-4.55S61.86,39,62,38.49C62.26,37.59,65.37,33,65.93,32.89Z"/></g><g id="Group_3554" data-name="Group 3554"><g id="Group_3552" data-name="Group 3552"><g id="Group_3550" data-name="Group 3550"><path id="Path_6111" data-name="Path 6111" class="cls-16" d="M47.86,52.59a20.32,20.32,0,0,0-2.13-5.7L39.15,33.53c-.85-1.74-1.95-3.67-3.85-4.05-1.33-.27-2.69.33-4,.22-.61-.05-.82-1-1.09-2A5,5,0,0,1,26.86,29c.54.93,1.64,1.82,1.48,3-.09.69-.68,1.19-1.12,1.73a5.91,5.91,0,0,0-1,4.48,17.16,17.16,0,0,0,1.46,4.48c1.51,3.52,2.94,7.07,4.57,10.54,1,2.14,1.68,4.52,3.15,6.42,1.87,2.41,4,1.57,6.64.9a8.88,8.88,0,0,0,4.4-2.22A6.91,6.91,0,0,0,47.86,52.59Z"/><path id="Path_6112" data-name="Path 6112" class="cls-17" d="M28.29,30.17a6.11,6.11,0,0,0,1.84-.92,1.26,1.26,0,0,0,.58-.8,1.42,1.42,0,0,0-.23-.77L30,26.85a.88.88,0,0,0-1.3-.48,11.38,11.38,0,0,0-2.05,1c-.31.18-.58.37-.53.78a1.66,1.66,0,0,0,.12.42C26.68,29.52,27.05,30.54,28.29,30.17Z"/></g><g id="Group_3551" data-name="Group 3551"><path id="Path_6113" data-name="Path 6113" class="cls-18" d="M58.64,35a2.58,2.58,0,0,0-1.77.7c.3-.27-.74-2.18-.95-2.48a6.73,6.73,0,0,0-3.6-2.17V30.9c0-.73-.06-1.47-.1-2.21,0,.44-3.39.46-3.74.43s-2.14-.1-2.14.19v1.77a6.47,6.47,0,0,0-4.08,4.34,17.37,17.37,0,0,0-.43,4.38c-.14,2,.1,3.9.05,5.85a13.27,13.27,0,0,0,.63,5.73,6.73,6.73,0,0,0,6.1,4h2a6.66,6.66,0,0,0,6.29-4.53,2.58,2.58,0,0,0,1.77.7A2.62,2.62,0,0,0,61.26,49V37.64A2.62,2.62,0,0,0,58.64,35ZM60,49.18a.87.87,0,0,1-.87.87c-.62,0-1.57,0-1.94-.61a3.72,3.72,0,0,1-.14-1.72c0-.55.06-1.09.06-1.64V39a1.8,1.8,0,0,1,1-2.08,1.43,1.43,0,0,1,1.33.31c.71.62.53,1.53.53,2.37v9.58Z"/><path id="Path_6114" data-name="Path 6114" class="cls-19" d="M52.35,25.94v3.21c0,.06,0,.07,0,.12a10.55,10.55,0,0,1-4.83.41,2,2,0,0,1-1.26-.42v-3a.28.28,0,0,1,0-.09,1.14,1.14,0,0,1,.58-.29A11.21,11.21,0,0,1,52.35,25.94Z"/><path id="Path_6115" data-name="Path 6115" class="cls-20" d="M54.32,37.22l0,0a1.22,1.22,0,0,0-.6,0l-1.24.11c-.8.07-1.63.14-2.44.14-1.12,0-2.24,0-3.37,0-.37,0-.75,0-1.12-.06s-.67,0-1,0a.28.28,0,0,0-.18,0,.24.24,0,0,0-.06.11,5.8,5.8,0,0,0,0,.93l-.06,1a5.57,5.57,0,0,0,0,1.08.89.89,0,0,0,.15.5,1,1,0,0,0,.49.34,2.12,2.12,0,0,0,.66.11,7.68,7.68,0,0,1,.82.11c.57.07,1.13.12,1.7.15a20.41,20.41,0,0,0,5-.42,1.82,1.82,0,0,0,1.05-.48,1.55,1.55,0,0,0,.27-.83,18.53,18.53,0,0,0,.14-2.11C54.47,37.67,54.51,37.36,54.32,37.22Z"/></g></g><path id="Path_6116" data-name="Path 6116" class="cls-21" d="M72.63,46.2c-1.88-.14-3.79,0-5.67,0H30.31l-.5,0,.43-.19h-2a7.52,7.52,0,0,0-2,0H24.58c-.35,0-.62.34-.95.51-.3.83,1.05,5,1.4,6.17.71,2.29,1.7,4.37,2.5,6.6A20.48,20.48,0,0,0,30.19,65c4.1,5.29,12,3.47,17.05,3.47H58.57c3,0,5.33.49,7.88-2,4-4,6-11.32,7.32-17.75C74.25,46.26,74.07,46.31,72.63,46.2Z"/><path id="Path_6117" data-name="Path 6117" class="cls-22" d="M74.72,47a2.47,2.47,0,0,1-1.55.51c-1.68,0-3.36,0-5,0H40.35c-3.46,0-6.93-.11-10.39-.22-1.78-.06-3.56.29-5.35.14s-4.51-1.18-2.77-3.76c1-1.43,4.09-1,5.44-1,2.27,0,4.53.24,6.8.3,12.92.37,25.82.41,38.74.6a3.39,3.39,0,0,1,1.77.34,2,2,0,0,1,.34,2.82A1.51,1.51,0,0,1,74.72,47Z"/><g id="Group_3553" data-name="Group 3553"><path id="Path_6118" data-name="Path 6118" class="cls-23" d="M44.55,53.87h.08c.33,0,.66.07,1,.13l.63.11h0a2.38,2.38,0,0,0,.38.11h0a1.24,1.24,0,0,0,.27,0,.7.7,0,0,0,.35-.06,1.69,1.69,0,0,0,.25-.2l.19-.2c.24-.22.49-.42.75-.63s.22-.21.33-.32a1.59,1.59,0,0,1,.24-.2,6.61,6.61,0,0,1,.49,1.44h-.45a3.3,3.3,0,0,0-.77.07.52.52,0,0,0-.18.3.15.15,0,0,0,.19.11h0l.1,0a1.19,1.19,0,0,1,.23.16l.24.17c.38.21.77.53,1.18.77.19.11.5.29.77.48a2.69,2.69,0,0,1,.37.3.83.83,0,0,1,.21.28.16.16,0,0,0,.21.09.18.18,0,0,0,.08-.09.1.1,0,0,0,.07,0l.22-.24.49-.48c.17-.16.33-.31.43-.42a4.54,4.54,0,0,0,.58-.73,3.18,3.18,0,0,0,.23-.4.94.94,0,0,0,.11-.37V54a.06.06,0,0,0,0,0,.16.16,0,0,0-.14-.18h-.15a4.22,4.22,0,0,0-.62,0,5.15,5.15,0,0,1-.55,0l-.2,0a3.5,3.5,0,0,0-.15-.64,4.58,4.58,0,0,1-.19-.66c0-.24-.08-.46-.13-.68a3.26,3.26,0,0,0-.25-.68.85.85,0,0,1-.09-.22c-.06-.14-.12-.31-.18-.46a2.12,2.12,0,0,0-.11-.21.49.49,0,0,0-.16-.16h0a.57.57,0,0,0-.32-.08,2.47,2.47,0,0,0-.47,0,2.19,2.19,0,0,1-.36,0c-.35,0-.67,0-1,0h0L48.32,50l-.29,0a.17.17,0,0,0-.12.16c-.74.67-1.43,1.4-2.12,2.12a6.76,6.76,0,0,1-.62.57,6.62,6.62,0,0,0-.7.59.16.16,0,0,0,0,.11.1.1,0,0,0,0,.07.16.16,0,0,0,.14.18Z"/><path id="Path_6119" data-name="Path 6119" class="cls-23" d="M56.44,61.19c-.41-1-.91-2-1.4-3.06a5.45,5.45,0,0,1-.35-.87c-.1-.32-.21-.64-.34-.95a.14.14,0,0,0-.09-.08.1.1,0,0,0-.06,0,.15.15,0,0,0-.21.07,7.82,7.82,0,0,1-.6.9,4.91,4.91,0,0,1-.39.51l-.12.12a1.29,1.29,0,0,0-.16.17h0l-.14.21a.62.62,0,0,0-.09.3v.09a1.42,1.42,0,0,0,.11.33l.13.27c.14.33.25.67.37,1,0,.14.13.31.2.46l.08.21,0,.09a8.57,8.57,0,0,1-1.82-.32l.19-.43a2.41,2.41,0,0,0,.24-.73.17.17,0,0,0-.08-.17.14.14,0,0,0-.14-.13.16.16,0,0,0-.17.14h0l-.06.05a1.66,1.66,0,0,1-.27.13,1.64,1.64,0,0,0-.3.14c-.39.23-.9.41-1.34.65a9.08,9.08,0,0,1-.81.44,2.64,2.64,0,0,1-.47.17.93.93,0,0,1-.4.06h0a.17.17,0,0,0-.18.14h0a.16.16,0,0,0,.06.13.1.1,0,0,0,0,.09c.09.15.23.47.37.78s.27.65.37.85a6.13,6.13,0,0,0,.57,1,4.35,4.35,0,0,0,.34.41,1.22,1.22,0,0,0,.36.27h0a.16.16,0,0,0,.22,0l0,0a4.13,4.13,0,0,0,.35-.81,2.07,2.07,0,0,1,.28-.58,4.73,4.73,0,0,0,.76.21,5.75,5.75,0,0,1,.8.18,6.36,6.36,0,0,0,1.61.36h0a3.65,3.65,0,0,1,.44.06,5.52,5.52,0,0,0,.55.07h.19a.48.48,0,0,0,.17-.05.56.56,0,0,0,.22-.24,1.92,1.92,0,0,0,.18-.45c0-.08.05-.15.07-.21l.06-.15c.17-.32.25-.65.41-.92a3.16,3.16,0,0,1,.18-.27,1,1,0,0,0,.14-.37A.15.15,0,0,0,56.44,61.19Z"/><path id="Path_6120" data-name="Path 6120" class="cls-23" d="M47.07,62c-.11-.19-.2-.38-.29-.57l-.05-.17a2,2,0,0,0-.08-.22h0c0-.08-.09-.16-.15-.24a.54.54,0,0,0-.28-.22,1,1,0,0,0-.3,0h-.35c-.36,0-.71-.07-1.07-.11l-.22,0H44l-.24,0-.1,0a8.88,8.88,0,0,1,1.1-1.48l.3.35a2.61,2.61,0,0,0,.55.55.59.59,0,0,0,.37-.06.15.15,0,0,0-.05-.22h0a.29.29,0,0,1,0-.09.54.54,0,0,1,0-.18c0-.1,0-.21,0-.31V58.8c0-.45,0-1,0-1.49a8,8,0,0,1,0-1,2.83,2.83,0,0,1,0-.5,1.28,1.28,0,0,1,.14-.37.15.15,0,0,0-.19-.23.1.1,0,0,0-.09,0,8,8,0,0,1-.8,0l-.63,0H44a6.71,6.71,0,0,0-1.1.09,4.37,4.37,0,0,0-.52.12,1.08,1.08,0,0,0-.4.2l0,0,0,0a.16.16,0,0,0-.06.22h0a3.62,3.62,0,0,0,.56.67,2,2,0,0,1,.4.51,4.88,4.88,0,0,0-.52.59,6.32,6.32,0,0,1-.52.64,6.2,6.2,0,0,0-1,1.29l-.15.23c-.1.14-.22.31-.32.47a1.71,1.71,0,0,0-.13.23.62.62,0,0,0-.07.23v0a.56.56,0,0,0,.12.3,1.91,1.91,0,0,0,.33.37,3.19,3.19,0,0,1,.26.26c.21.3.47.52.64.78.06.08.1.18.17.28a1,1,0,0,0,.27.3.15.15,0,0,0,.2,0l.8,0c.85,0,1.72,0,2.57.06h.33a5.35,5.35,0,0,1,.7.08c.22,0,.47.07.91.1l.19-.07a.15.15,0,0,0,0-.22h0A7.43,7.43,0,0,1,47.07,62Z"/></g></g></g></g></g></svg>