<svg id="Layer_1" data-name="Layer 1" xmlns="http://www.w3.org/2000/svg" viewBox="0 0 51 51"><defs><style>.cls-1{fill:#1d1931;fill-rule:evenodd;}</style></defs><title>icono_twitter</title><path id="Path_341" data-name="Path 341" class="cls-1" d="M37.72,20.51v1A17.61,17.61,0,0,1,20.23,39.21H20a16.28,16.28,0,0,1-9.35-3h1.48a12.08,12.08,0,0,0,7.38-2.47,6.9,6.9,0,0,1-5.91-4.43h3a5.83,5.83,0,0,1-4.92-5.9h0c1,.49,2,.49,2.95,1a6.51,6.51,0,0,1-2.95-4.92,6.88,6.88,0,0,1,1-2.95A19.09,19.09,0,0,0,25.41,22V20.51a6,6,0,0,1,5.91-5.91,6.2,6.2,0,0,1,4.43,2,34.59,34.59,0,0,0,3.94-1.48,8.9,8.9,0,0,1-2.46,3.45,7.07,7.07,0,0,0,3.44-1c-1,1-2,2.46-3,3"/></svg>