<svg id="Layer_1" data-name="Layer 1" xmlns="http://www.w3.org/2000/svg" viewBox="0 0 51 51"><defs><style>.cls-1,.cls-2,.cls-3{fill:none;}.cls-2{stroke:#04c4d9;}.cls-2,.cls-3{stroke-miterlimit:4;stroke-width:3px;}.cls-3{stroke:#1d1931;}</style></defs><title>icono_derecha_movil</title><g id="Symbol_33_6" data-name="Symbol 33 6"><g id="Rectangle_622-2" data-name="Rectangle 622-2"><path class="cls-1" d="M25.23,42.48h0A19,19,0,0,1,6.92,22.83h0A19,19,0,0,1,26.56,4.52h0A19,19,0,0,1,44.88,24.16h0A19,19,0,0,1,25.23,42.48Z"/><path class="cls-2" d="M25.29,41h0A17.49,17.49,0,0,1,8.42,22.89h0A17.48,17.48,0,0,1,26.51,6h0A17.48,17.48,0,0,1,43.38,24.11h0A17.49,17.49,0,0,1,25.29,41Z"/></g><path id="Path_4246-2" data-name="Path 4246-2" class="cls-3" d="M23.41,31.26l7.35-6.85-6.85-7.36"/></g></svg>