<svg id="Layer_1" data-name="Layer 1" xmlns="http://www.w3.org/2000/svg" viewBox="0 0 51 51"><defs><style>.cls-1{fill:#1d1931;}</style></defs><title>icono_instagram</title><path id="Path_343" data-name="Path 343" class="cls-1" d="M26.85,32.24a5.34,5.34,0,1,1,5.34-5.34,5.34,5.34,0,0,1-5.34,5.34Zm13-11.81a8.88,8.88,0,0,0-.55-3,5.1,5.1,0,0,0-1.2-1.84,4.94,4.94,0,0,0-1.84-1.2,8.93,8.93,0,0,0-3-.55c-1.68-.07-2.19-.09-6.47-.09s-4.78,0-6.47.1a8.82,8.82,0,0,0-3,.54,4.94,4.94,0,0,0-1.84,1.2,4.78,4.78,0,0,0-1.2,1.84,8.93,8.93,0,0,0-.55,3c-.08,1.69-.1,2.2-.1,6.47s0,4.78.1,6.47a8.64,8.64,0,0,0,.55,3,5.26,5.26,0,0,0,3,3,8.87,8.87,0,0,0,3,.55c1.7.08,2.2.1,6.48.1s4.78,0,6.47-.1a8.93,8.93,0,0,0,3-.55,5.1,5.1,0,0,0,1.84-1.2,4.79,4.79,0,0,0,1.19-1.84,8.89,8.89,0,0,0,.56-3c.07-1.69.09-2.19.09-6.47S40,22.12,39.89,20.43Zm-13,14.7a8.23,8.23,0,1,1,8.23-8.23h0A8.24,8.24,0,0,1,26.85,35.13ZM35.4,20.28a1.92,1.92,0,1,1,1.92-1.92h0a1.91,1.91,0,0,1-1.91,1.92Z"/></svg>