<svg xmlns="http://www.w3.org/2000/svg" xmlns:xlink="http://www.w3.org/1999/xlink" viewBox="0 0 500 500"><defs><style>.cls-1{opacity:0.2;fill:url(#radial-gradient);}.cls-2{fill:#0098ff;}.cls-3{fill:#546870;}.cls-4{fill:#808e93;}.cls-5{fill:#728084;}.cls-6{fill:#6e7e7f;}.cls-7{fill:#b6ccd1;}.cls-8{fill:#c5d4d6;}.cls-9{fill:#94a7aa;}.cls-10{fill:#a8bdc1;}.cls-11{fill:#47585e;}.cls-12{fill:#6a7c83;}.cls-13{fill:#00b7ff;}.cls-14{fill:#3bd1ff;}.cls-15{fill:#31cbc5;}.cls-16{fill:#22b2a8;}.cls-17{fill:#3eddd1;}.cls-18{fill:none;}.cls-19{fill:#24bcad;}.cls-20{fill:#59a535;}.cls-21{fill:#b19f60;}.cls-22{fill:#9b8950;}.cls-23{fill:#fcfd1a;}.cls-24{fill:#4e9b2f;}.cls-25{fill:#73934e;}.cls-26{fill:#8cb563;}.cls-27{fill:#b57743;}.cls-28{fill:#939692;}.cls-29{fill:#a5aba3;}.cls-30{fill:#eab9b9;}.cls-31{fill:#999;}.cls-32{fill:#7f7f7e;}.cls-33{fill:#8c8c8c;}.cls-34{fill:#a0a0a0;}.cls-35{fill:#b2b2b2;}.cls-36{fill:#70bc48;}.cls-37{fill:#fff;}.cls-38{fill:#d37542;}.cls-39{fill:#c8e1e8;}.cls-40{fill:#afd4dd;}.cls-41{fill:#7fb2ba;}.cls-42{fill:#669196;}.cls-43{fill:#daecef;}.cls-44{fill:#605a4c;}.cls-45{fill:#686358;}.cls-46{fill:#677d82;}.cls-47{fill:#5d7177;}.cls-48{fill:#514939;}.cls-49{fill:url(#linear-gradient);}</style><radialGradient id="radial-gradient" cx="260.74" cy="-224.26" r="140.35" gradientTransform="translate(0 455.35) scale(1 0.17)" gradientUnits="userSpaceOnUse"><stop offset="0"/><stop offset="1" stop-opacity="0"/></radialGradient><linearGradient id="linear-gradient" x1="202.5" y1="327.16" x2="368.97" y2="276.84" gradientUnits="userSpaceOnUse"><stop offset="0.33" stop-color="#9b8950"/><stop offset="1" stop-color="#47585e"/></linearGradient></defs><title>iconos_boletin</title><g id="OBJECTS"><ellipse class="cls-1" cx="260.74" cy="417.58" rx="140.37" ry="23.63"/><polygon class="cls-2" points="129.11 282.87 170.41 349.97 232.35 386.1 300.19 381.68 334.11 290.24 129.11 282.87"/><path class="cls-3" d="M330.43,311.63l61.94,36.13L416,346.22c23.22-23.65,37.18-52.8,37.18-84.33,0-4.07-4.15-6.44-6.09-10.09l-158-7.28Z"/><path class="cls-4" d="M453.21,260.38c0-21.4-50.48-39.71-121.39-47.17a272.09,272.09,0,0,1,0,94.34C402.73,300.08,453.21,281.77,453.21,260.38Z"/><path class="cls-5" d="M361.85,258.74a93.16,93.16,0,0,0,14.58,1.93,9.43,9.43,0,0,1,3.71.56,2.8,2.8,0,0,1,1.74,3c-.34,1.31-1.82,1.91-3.1,2.31l-14,4.44,9.6.23c.61,0,1.41.23,1.4.83a1.05,1.05,0,0,1-.37.68c-1.39,1.36-3.84,2.16-3.84,4.11,0,1.15-4.44,1.78-3.82,2.75s2.25,4.61,1.17,5.05a44.55,44.55,0,0,1,18.42.56c6.33,1.72,5.57,3.8,5.57,3.8,5.67-2.84-9.95-6.26-7.67-6,17.9,1.87,11.82,10.58.21,12.79-1.18.22,11.2-5,6.77-5.46-1.15-.13-1.24,1.52-9,3-8,1.51-18.7,1.25-27.1,0-2.92-.43-2.45,8.62-4.81,6.85-3.85-2.88-5.35-7.9-6.1-12.65-1.25-8-1.57-17.75,1.11-25.53C348.78,254.86,356.18,257.69,361.85,258.74Z"/><path class="cls-5" d="M403.65,226.42a57,57,0,0,0-15.24,6.82L409,240.45a2.57,2.57,0,0,1,1.18.67c1,1.21-.74,2.77-2.19,3.37l-18.14,7.56c-1.29.54-2.86,1.71-2.26,3,2.53,2,16.9,3.35,30.43,3.82.55,1.25-.62,2.54-1,3.86a4.59,4.59,0,0,0,1.4,4.44,10.48,10.48,0,0,0,4.27,2.29A31.68,31.68,0,0,0,432.81,271a4.34,4.34,0,0,1-3.88,2c-1.53,0-8.39.27-9.83-.27-3.24-1.22-5.05-2.47-8.3-3.69.78,2.83,7,4.53,9.78,5.35a23.27,23.27,0,0,0,14.06-.49,30.09,30.09,0,0,1,.95,7.68c11.29-6.46,17.62-13.64,17.62-21.2C453.21,247.32,434.41,235.41,403.65,226.42Z"/><path class="cls-3" d="M348.57,255.12l.44.14c2.18.7,11.95,3.86,12.17,4.46.13.36,3.17.68,6,.9a8.14,8.14,0,0,1,6.77,4.73h0l-14.56,4.24,10.14,17.89-39.72-20-7.66-6Z"/><polygon class="cls-6" points="330.06 230.88 355.5 225.35 355.5 263.32 330.06 271.07 330.06 230.88"/><polygon class="cls-7" points="358.22 249.22 352 245.63 330.98 249.87 332.64 255.77 358.22 249.22"/><polygon class="cls-8" points="338.81 255.85 334.02 257.16 334.02 263.14 338.81 261.78 338.81 255.85"/><polygon class="cls-8" points="348.13 253.3 348.13 259.13 352.92 257.76 352.92 251.98 348.13 253.3"/><polygon class="cls-8" points="341.07 255.23 341.07 261.13 345.87 259.77 345.87 253.91 341.07 255.23"/><polygon class="cls-9" points="358.63 234.57 358.63 236.78 331.72 243.23 331.35 240.83 358.63 234.57"/><polygon class="cls-9" points="358.22 249.22 358.22 251.43 331.3 257.89 330.93 255.49 358.22 249.22"/><polygon class="cls-7" points="331.07 234.57 352.18 229.4 358.63 234.57 330.61 241.02 331.07 234.57"/><polygon class="cls-7" points="355.5 225.35 325.17 220.28 324.34 230.79 329.04 231.34 355.5 225.35"/><path class="cls-6" d="M336.65,182.21c0-1.07-3.82-1.94-8.53-1.94s-8.52.87-8.52,1.94l-4.84,42.31c0,1.67,6,3,13.36,3s13.37-1.36,13.37-3Z"/><path class="cls-9" d="M334.15,180.84c-.37-.08-.78-.16-1.21-.23l4.24,46.13a16.23,16.23,0,0,0,1.6-.4Z"/><path class="cls-9" d="M330.79,227.49a44.94,44.94,0,0,0,4.57-.42l-4-46.65c-.56,0-1.14-.09-1.74-.11Z"/><path class="cls-10" d="M328.12,184.1c4.71,0,8.53-.9,8.53-2s-3.82-2-8.53-2-8.52.9-8.52,2S323.41,184.1,328.12,184.1Z"/><path class="cls-11" d="M328.12,183.78c3.81,0,6.9-.62,6.9-1.39s-3.09-1.38-6.9-1.38-6.9.62-6.9,1.38S324.31,183.78,328.12,183.78Z"/><path class="cls-3" d="M329.38,145.28a10.82,10.82,0,0,1,8.31-1.61c3.95.81,10.7.74,12.64-3.63.4-.9.55-1.9,1-2.75,1.64-3,6.17-2.67,9-.81s4.9,4.79,7.9,6.36c3.68,1.91,8.1,1.47,12.21,1,2.59-.3,5.35-.69,7.29-2.43.95-.85,1.66-2,2.78-2.62,2.68-1.5,5.81.68,8.68,1.77a12.61,12.61,0,0,0,13.25-3c4.85-1.15,9.8,2.94,14.83.26a3.74,3.74,0,0,0,1.37-5.63c-1.8-2.32-5.41-1-8.34-1.09-5.46-.15-10.53-5.81-15.55-3.65a18.08,18.08,0,0,1-3.26,1.57c-2,.42-3.9-1-5.56-2.19-3.53-2.58-7.71-4.79-12.06-4.33s-8.48,4.6-7.47,8.86c-2.93-4.9-10.47-6.18-14.84-2.52-4.26-6-12.54-7.31-19.89-7.38-3,0-6.05.09-8.74,1.36s-4.9,4-4.71,7c.06,1,.34,2-.15,2.8a2.73,2.73,0,0,1-2.06,1.12c-3.34.49-7.42-1.14-10.37-.52a4.06,4.06,0,0,0-2.47,6.26,3.91,3.91,0,0,0,5.74.3,7.28,7.28,0,0,1-.68,3.18,5.83,5.83,0,0,0,1.56,6.84,5.69,5.69,0,0,1,1.3,1.61c1.27,2.35-1.39,8.53,1.2,7.87C339,155,326.82,182.09,329,181.84,342,157.51,323,149.77,329.38,145.28Z"/><path class="cls-11" d="M379.28,287.48c-2.89,0-5.22.65-5.22,1.45s2.33,1.46,5.22,1.46,5.23-.65,5.23-1.46S382.17,287.48,379.28,287.48Zm-10.23,1.15c1.08-1.35,5.52-2.37,10.83-2.37a26.29,26.29,0,0,1,9.37,1.4c-1.81-1.13-5.42-1.9-9.58-1.9C374.41,285.76,370,287,369.05,288.63Zm10.83,3.65c-5.64,0-10.28-1.15-11-2.62.52,1.81,5.15,3.22,10.78,3.22,4.51,0,8.37-.9,10-2.19C387.8,291.63,384.12,292.28,379.88,292.28Zm-14.19-2.8c0-1.92,4-3.51,9.16-3.76a34.91,34.91,0,0,0-4.85.46c-3.13.65-5.08,1.9-4.77,3.33.2.93,1.33,1.78,3,2.43C366.67,291.28,365.69,290.42,365.69,289.48Zm22.77-.57c0-1.38-4.42-2.07-3.79-1.9,1.9.52,3.13,1.17,3.31,1.86.22.85-1.23,1.58-3.7,2.06C386.83,290.46,388.45,289.74,388.46,288.91Z"/><path class="cls-3" d="M371.65,272.34s6.78,1.24,8.16,5.11,1.52,11.2,1.52,11.2-4.42,2.35-4.84-1.11,1.11-10.23-5-11.47C371.51,276.07,370.41,272.89,371.65,272.34Z"/><path class="cls-12" d="M376.81,275.05a5.68,5.68,0,0,1,3.05,4.8c.36,3.68.73,6.91.46,6.27s-1-6.74-1.11-7.29A7.08,7.08,0,0,0,376.81,275.05Z"/><path class="cls-11" d="M379.38,289.34c0-1.72-.31-8.35-1.51-11.7-1-2.74-4.62-4.15-6.69-4.76-.4,1.09.33,3.19.33,3.19,6.09,1.24,4.57,8,5,11.47C376.72,289.43,378.14,289.58,379.38,289.34Z"/><path class="cls-3" d="M369.85,271.92s3.6-.28,4.57-3.32,2.62-.55,1.79.69A8.2,8.2,0,0,1,369.85,271.92Z"/><path class="cls-3" d="M373.23,277.31s1.2,1.9.49,3.15.68,1.46.9.75C375.06,279.75,374.18,278.44,373.23,277.31Z"/><path class="cls-3" d="M374.65,272.3s2.67.21,3.76,1.34,1.56,0,.88-.58A5.4,5.4,0,0,0,374.65,272.3Z"/><rect class="cls-9" x="348.57" y="272.28" width="25.3" height="8.75" rx="4.06" transform="translate(-66.21 120.71) rotate(-17.4)"/><path class="cls-10" d="M373.39,273.17l-.19-.59a4,4,0,0,0-5.08-2.66l-1.37.42a4.22,4.22,0,0,1,4.62,2.91l.19.62a4.21,4.21,0,0,1-1.45,4.59l.62-.2A4.06,4.06,0,0,0,373.39,273.17Z"/><path class="cls-8" d="M373.46,273.53a2.29,2.29,0,0,0-.07-.36l-.19-.59a3.93,3.93,0,0,0-.75-1.38,2.34,2.34,0,0,0-1.59.32,14.73,14.73,0,0,0,.49,1.58c-.48-1.13-.87-1.32-.87-1.32l-21.54,6.5a3.94,3.94,0,0,0,.12,1.86l.19.6a3.32,3.32,0,0,0,.2.47l22.11-7.34Z"/><path class="cls-13" d="M189.66,213.21C118.76,220.67,68.52,239,68.52,260.38s50.24,39.7,121.14,47.17a684.89,684.89,0,0,0,71.08,3.59,684.75,684.75,0,0,0,71.08-3.59Z"/><path class="cls-14" d="M150.87,279.73l-5.9,7.38,6.5,15q5.66,1,11.6,2a72.09,72.09,0,0,0-4.64-7c-2-2.39,7.92-4.05,5.53-7S150.87,279.73,150.87,279.73Z"/><path class="cls-14" d="M306.75,309.67q12.9-.84,25.07-2.12L189.66,213.21c-40.29,4.24-73.9,12-95.41,21.8-6,9.77,36.1,8,61.13,8.7,31.26.84,21.26,12.92,29.18,23.35s17.09,4.16,55.44,9.17C266.44,279.68,292.88,298.38,306.75,309.67Z"/><path class="cls-15" d="M295.3,175.07l-7.42-37c-2.66-3.61-7.83-10.21-10.71-13l-9.48,11.53-15.52,6.25-7.74,18.53-15.77,4.15-5.53,6.36-1.19-9.57,9.72-38.84c-19.65,14.22-35.24,47.84-42,90.46l126,95.1a305,305,0,0,0,3.65-47.55c0-16.66-3.66-39.86-6-54.76C312,198.52,295.3,175.07,295.3,175.07Z"/><path class="cls-16" d="M308.05,286.26a3.68,3.68,0,0,0-2-.32,1.2,1.2,0,0,0,.31-.63,2.62,2.62,0,0,0,.64-.73,3.64,3.64,0,0,0,1.18.92c1.43.69,3.06.25,3.33-.29s-.42-2.1-1.85-2.78a2.63,2.63,0,0,0-.59-.22,2.69,2.69,0,0,0-.8-1,2.64,2.64,0,0,0,.23-.29,3.76,3.76,0,0,0,1.87-.09c1.5-.49,2.38-1.94,2.19-2.51-.12-.39-.88-.81-1.82-.89,1.18-.61,1.85-1.79,1.68-2.29s-.9-.81-1.85-.89a1,1,0,0,0,.07-.6c-.19-.57-1.75-1.22-3.25-.73a3.21,3.21,0,0,0-.65.29,3.44,3.44,0,0,0-1.42-1.06.7.7,0,0,0-.13-.16,1.38,1.38,0,0,0-1-.11h-.26a4.58,4.58,0,0,0,.34-.43c.87-1.33.64-3,.14-3.34s-2.13.14-3,1.47a3.82,3.82,0,0,0-.44,1,.82.82,0,0,0-.23-.38c-.42-.33-1.78-.09-2.76.85a1.86,1.86,0,0,0-.1-.2,3.33,3.33,0,0,0,1.7-2.56c.2-1.57-.74-3-1.34-3.06s-1.85,1.06-2.05,2.64a3.57,3.57,0,0,0,.17,1.58.58.58,0,0,0-.22,0,1,1,0,0,0-.45.28,1.66,1.66,0,0,0-1.27-.26.87.87,0,0,0-.1.08,3.31,3.31,0,0,0-.37-.55c-1-1.22-2.68-1.5-3.15-1.11s-.49,2.08.52,3.29l.11.12a2,2,0,0,0-1.7.32c-.34.45,0,1.88,1,2.84a2,2,0,0,0,.09.73,3.37,3.37,0,0,0-.64.46l-.22-.09a1.28,1.28,0,0,0,.55-.74c.06-.6-1.1-1.83-2.68-2s-3,.8-3,1.41.69,1.34,1.78,1.76a1.34,1.34,0,0,0-.6.79c-.05.61,1.14,1.81,2.72,1.94a3.67,3.67,0,0,0,1.5-.21,2.65,2.65,0,0,0,.5.05.89.89,0,0,0-.2.42.72.72,0,0,0,0,.24,1.53,1.53,0,0,0-.16,1.2c.23.44,1.39.76,2.57.45l.28,0a4,4,0,0,0,.6,0,1.33,1.33,0,0,0-.58.78c-.05.6,1.14,1.8,2.72,1.93a3.06,3.06,0,0,0,3-1.36,3.3,3.3,0,0,0,.37-.38l.16.14a4.1,4.1,0,0,0,.4.23,3.63,3.63,0,0,0-.5.22c-1.39.74-2,2.32-1.72,2.85s1.93.91,3.33.16l.1-.06a3.31,3.31,0,0,0,.38,3.07c.88,1.31,2.51,1.77,3,1.43s.71-2-.17-3.33a2,2,0,0,0-.29-.36,5.15,5.15,0,0,0,.55,0,4.1,4.1,0,0,0,.48-.1,3.83,3.83,0,0,0,.42.08,1.22,1.22,0,0,0-.65.45c-.26.55.42,2.1,1.85,2.79s3.06.24,3.32-.3S309.47,286.94,308.05,286.26Zm-14.38-13.7-.18-.22a1.9,1.9,0,0,0,.41,0,2.6,2.6,0,0,0,.1.25Zm1.76,3.48,0,0,.23-.07A.82.82,0,0,0,295.43,276Zm1.11,3.63a3.8,3.8,0,0,0-.65.46h-.33a1.29,1.29,0,0,0,.58-.78,1.64,1.64,0,0,0-.74-1.14,1,1,0,0,0,0-.58.73.73,0,0,0-.15-.16.71.71,0,0,0,.09-.07,3.7,3.7,0,0,0,1.33,1.81c0,.12.08.24.13.36Zm2.36-4.92-.38-.05.07-.07a3.55,3.55,0,0,0,.78-.39.68.68,0,0,0,0,.21.46.46,0,0,0,.08.13A3.43,3.43,0,0,0,298.9,274.75Zm1.94-2.46v0h0Zm1,5.44.09-.09s0,.05.05.07Zm6.42.36a4,4,0,0,0-.83-.59c0-.06,0-.12,0-.18a3.17,3.17,0,0,0,1.38.43A3.2,3.2,0,0,0,308.22,278.09Zm-.22-6.22c1.45-.65,2.17-2.18,1.92-2.73s-1.87-1-3.31-.39-2.17,2.18-1.92,2.73S306.56,272.52,308,271.87Z"/><polygon class="cls-17" points="295.3 175.07 258.16 196.22 246.73 208.02 277.33 196.59 313.28 206.73 295.3 175.07"/><path class="cls-18" d="M252.09,214.57a12,12,0,0,1-4.47.08l-.55,3.29,4.32-2Z"/><path class="cls-16" d="M258.16,196.22l4-2.27c-1.57-5.68-5.56-10.43-10.81-12.07-7.74-2.43-15.24,2.85-16.75,11.79a19.79,19.79,0,0,0,3.73,15.1,5.74,5.74,0,0,0-3.59,4.64c-.6,3.55,1.41,7.2,4.48,8.16a4.79,4.79,0,0,0,3.69-.31l-2.8,16.57.22.16a4.25,4.25,0,0,0,3.22.91l3-17.86,5.7-4.36,1.16-2.47.38-.13a7.68,7.68,0,0,0,2.11,1c4.25,1.33,8.37-1.56,9.19-6.47a10.8,10.8,0,0,0-1.24-7L246.73,208Zm-10.54,18.43a12,12,0,0,0,4.47-.08l-.7,1.4-4.32,2Z"/><path class="cls-19" d="M262.15,194l-4,2.27L246.73,208l17.12-6.4a9.79,9.79,0,0,0-1-1.48A19.71,19.71,0,0,0,262.15,194Z"/><polygon class="cls-17" points="277.17 125.07 267.65 142.85 244.43 161.38 252.17 142.85 267.69 136.6 277.17 125.07"/><path class="cls-16" d="M253.55,225s3.32-2.77,10.51-2.21,12.17,3.68,13.27,5.34,2.22,14.38,2.22,14.38,6.82,5.72,8.48,9.59,6.16,21.31,6.16,21.31l-45.06-33.2Z"/><path class="cls-16" d="M226.82,225.68c.74-1.07.36-2.48-.81-3.75,1.17-3-1.72-7.11-7-9.53-5.75-2.65-12.14-2.31-14.28.77a3.82,3.82,0,0,0-.68,2.18c6.42,3.12,13.64,7,21.31,11.37A3,3,0,0,0,226.82,225.68Z"/><path class="cls-20" d="M194.37,210.6s-70.79,7.19-85.72,18.8,40.93,6.64,62.5,12.17,5,22.12,32.07,26.55,29.32-1.66,57,8.29S315.66,309,315.66,309s1.68-13.27-18.79-32.07S228.3,225.72,194.37,210.6Z"/><path class="cls-21" d="M263.84,273c-27.19-11.16-29.67-5.18-56.55-10.79s-9.57-21.46-30.88-27.93c-15.6-4.74-49.83-4.66-61-8.58a30.44,30.44,0,0,0-6.79,3.67C93.72,241,149.58,236,171.15,241.57s5,22.12,32.07,26.55,29.32-1.66,57,8.29S315.66,309,315.66,309a12.57,12.57,0,0,0-.13-2.94C308.51,300.17,286.32,282.26,263.84,273Z"/><path class="cls-22" d="M225.9,270.06c9.68.18,17,.14,34.29,6.35a143,143,0,0,1,15.91,7,94.37,94.37,0,0,0-9.27-7.53C253.68,266.47,236.86,267.73,225.9,270.06Z"/><path class="cls-22" d="M171.15,241.57c12.3,2.63,12.3,10.65,14.79,15.49-6.36-23.37-15-20.32-22.81-19.08a136.88,136.88,0,0,1-14.71.89A159,159,0,0,1,171.15,241.57Z"/><polygon class="cls-16" points="267.69 136.6 268.35 135.79 262.95 135.38 252.17 142.85 267.69 136.6"/><path class="cls-3" d="M295.3,175.07s17.61,31.11,18,31.66c0,0,6,38.1,6,54.76A305,305,0,0,1,315.66,309s17-1.58,17.42-1.63c15.8-1.7,30.55-3.94,43.92-6.63.38-7.54-8.1-17.22-8.1-17.22s-33-13.62-33-23.18a266.13,266.13,0,0,0-4.12-47.17c-1.47-8.15-23-38.56-23-38.56l-8.38-36.71c-3-3.58-8.83-10.12-12.09-12.88H277.17c2,2.45,9.38,11.18,10.71,13Z"/><path class="cls-16" d="M215.39,188.48l29-27.1-7.38-37.9s-5.44-.12-5.39,0Z"/><circle class="cls-23" cx="106.44" cy="129.95" r="17" transform="translate(-42.2 51.7) rotate(-22.91)"/><path class="cls-23" d="M107,128.94h-.78l-2.79-2.8-.79.78,2.8,2.8v.45l-2.8,2.8.79.78,2.79-2.8H107v-.45h.46v-1.11H107Zm-1.1,9.06H107v-5h-1.1Zm0,6H107v-4h-1.1Zm1.1-31.21h-1.1v5H107Zm-1.1,57.49H107v-1.11h-1.1ZM107,108.8h-1.1v2H107Zm-1.1,42.29H107v-2h-1.1Zm1.1-31.21h-1.1v4H107Zm-1.1,38.26H107v-5h-1.1Zm0,6H107v-4h-1.1ZM107,89.57h-1.1v1.11H107Zm0,3.12h-1.1v5H107Zm0,7h-1.1v4H107ZM92.34,130.5h4v-1.11h-4Zm53.37-1.11v1.11h1.1v-1.11Zm-42.29,1.11v-1.11h-5v1.11Zm-31.21,0h4v-1.11h-4Zm15.1-1.11h-2v1.11h2Zm51.35,1.11h5v-1.11h-5Zm-72.59,0h1.1v-1.11h-1.1Zm46.41,0h4v-1.11h-4Zm15.1-1.11h-2v1.11h2ZM78.25,130.5h5v-1.11h-5Zm45.3-1.11h-5v1.11h5Zm9.07,1.11h4v-1.11h-4ZM80.51,155.09l.79.78.78-.78-.78-.78ZM116.22,121l-.78-.78-1.71,1.7.78.79Zm-3.42,3.41-.78-.78-4.27,4.27.79.78Zm6.9-8.46.79.78,3.41-3.41-.78-.78Zm-23,23,.78.79L99.15,138l-.78-.78Zm-6,6,.78.78,4.26-4.27-.78-.78ZM85.56,150l.79.78,3.41-3.41-.78-.79Zm39.26-39.26.79.78,4.26-4.27-.78-.78Zm6-6,.78.79.78-.79-.78-.78Zm0,50.29.78.78.78-.78-.78-.78ZM119.7,144l3.42,3.42.78-.79-3.41-3.41Zm5.12,5.12,4.27,4.27.78-.78-4.26-4.27ZM107.75,132l4.27,4.27.78-.78-4.26-4.27Zm-12-13.58-4.26-4.27-.79.78L95,119.24Zm18,19.56,1.71,1.71.78-.79-1.71-1.7ZM85.56,109.85,89,113.27l.78-.78-3.41-3.42Zm-3.48-5L81.3,104l-.79.78.79.79Zm17.07,17.07-1.71-1.7-.78.78,1.71,1.71Z"/><polygon class="cls-24" points="217.79 233.09 236.96 233.28 233.64 231.62 216.13 231.43 217.79 233.09"/><path class="cls-24" d="M126.63,222.86c3.49-1.11,12-1.48,14.65-.78s0,6-9.95,5.3S125.29,223.29,126.63,222.86Z"/><path class="cls-24" d="M201.64,217.07a28.74,28.74,0,0,0-6.83-1.12c-3-.06-3.46.86-1,2.05a22.15,22.15,0,0,0,4,1.36l-24.9.16-1.1.41c.48.4-.27.22,1,.63l28.89.15,8.8,1.92,2.86.32.48.13a10.22,10.22,0,0,0,1.45.84,38.37,38.37,0,0,0,10,2.77c-7.24-4.2-14.4-8.1-21.19-11.49C202.21,215.54,201.36,216.19,201.64,217.07Zm5.51,3.74c1.39.58,2.95,1.14,4.62,1.66l-1.67-.19-5.75-1.52Z"/><circle class="cls-25" cx="168.55" cy="204.84" r="4.61"/><circle class="cls-26" cx="167.37" cy="204.08" r="3.07"/><circle class="cls-25" cx="172.83" cy="191.41" r="11.63" transform="translate(-84.72 178.27) rotate(-45)"/><circle class="cls-26" cx="172.83" cy="190.35" r="10.05" transform="translate(-82.7 161.96) rotate(-41.42)"/><path class="cls-25" d="M187.22,195.11a6.38,6.38,0,1,1-6.38-6.37A6.38,6.38,0,0,1,187.22,195.11Z"/><path class="cls-26" d="M186.6,194.43a4.76,4.76,0,1,1-4.75-4.75A4.75,4.75,0,0,1,186.6,194.43Z"/><path class="cls-27" d="M178.43,199.9l-1,3.13-3.14,2.27v-3.83a9.29,9.29,0,0,1-2.85,0v18.89l.19.06a3.81,3.81,0,0,0,2.66-.06h0V207.53l3.91-4.2,1-3.13Z"/><path class="cls-25" d="M218.65,208.67a7.17,7.17,0,1,1-7.17-7.17A7.17,7.17,0,0,1,218.65,208.67Z"/><path class="cls-26" d="M214.42,207.48a4.77,4.77,0,1,1-4.77-4.77A4.77,4.77,0,0,1,214.42,207.48Z"/><circle class="cls-25" cx="218.14" cy="187.79" r="18.07" transform="translate(-68.9 209.25) rotate(-45)"/><circle class="cls-26" cx="218.14" cy="186.15" r="15.62" transform="translate(-67.73 208.77) rotate(-45)"/><circle class="cls-25" cx="230.58" cy="193.55" r="9.91" transform="translate(-69.33 219.74) rotate(-45)"/><circle class="cls-26" cx="232.14" cy="192.49" r="7.38"/><path class="cls-27" d="M226.84,201l-1.6,4.87-4.89,3.52v-5.95a13.66,13.66,0,0,1-4.42,0v29.34l.3.11a5.85,5.85,0,0,0,4.12-.11h0V212.84l6.09-6.52,1.47-4.87S227.37,201.23,226.84,201Z"/><polygon class="cls-22" points="151.42 293.74 157.32 289.5 152.34 273.65 129.85 264.06 151.42 293.74"/><polygon class="cls-21" points="154.83 291.29 157.32 289.5 152.34 273.65 154.83 291.29"/><path class="cls-21" d="M158.23,303.31l-.36-.9s-13.27-37.61-52-49.78L68.55,246v14.3c0,.19,0,.37,0,.55C69.17,278.73,104.85,294.4,158.23,303.31Z"/><path class="cls-20" d="M75.84,240.1H68.55V246s5.39,15.75,35.86,22.86c22.12,5.16,34.29,11.06,34.29,11.06l-8.48-11.43s25.07,6.27,27.28,8.11l-9.95-11.06s4.59-1.3,3.32-2.21C135.38,252.26,99.35,240.1,75.84,240.1Z"/><path class="cls-24" d="M111.25,247.09a1.93,1.93,0,0,0-.31-1.17,156.54,156.54,0,0,0-26.35-5.34c-3.42.6-5.66,1.73-5.81,3.24-.28,2.8,6.76,5.81,15.72,6.71S111,249.9,111.25,247.09Z"/><path class="cls-24" d="M147.55,265.54s4.59-1.3,3.32-2.21-2.68-1.82-4.2-2.73c-5.2-1.44-10.86-1.72-8.43-.22a30.15,30.15,0,0,1,6.64,6.08c-4.43-3.32-21.85-5.53-19.91-4.7s12.16,5.81,8.84,5.25-16.86-1.1-16.86-1.1l5.25,3.31-12.44-3a89.36,89.36,0,0,1-35.61-12.3c5,5,14.09,11.2,30.26,15,22.12,5.16,34.29,11.06,34.29,11.06l-8.48-11.43s25.07,6.27,27.28,8.11Z"/><path class="cls-20" d="M125.38,224.57l-4.56-6.23,4.7,2.77-1-6.5,2.9,5.67.7-7.61,1.93,5.81,3-5.67.28,5.26,2.9-2.77-1,5,3.59-2.21-3.18,6.08a7.41,7.41,0,0,1-5.25,1.94c-2.22,0-2.49-1.39-2.49-1.39Z"/><path class="cls-28" d="M81.34,226.5s4.73-4.42,7.94-4.08a22.3,22.3,0,0,1,6.12,1.66s-6.62,5.7-11.74,5.07c-1.22-.15-2-.3-2-.3S80.12,229.14,81.34,226.5Z"/><path class="cls-29" d="M89.55,229.7a6.4,6.4,0,0,0-2,.59,4.74,4.74,0,0,0-3.24-2.17s-.09-.22-.23-.52c4.32-1.82,8.11-7,8.11-7a22.55,22.55,0,0,0-6.35-.23c-2.27.28-4.74,3.05-6,4.64a5.82,5.82,0,0,0-3.42,1.72,9.05,9.05,0,0,1-1.58,1.69c-.77.59-1.45,1.37-1.22,2.18.42,1.43,2.83,3.66,5.92,3.61,0,.12,0,.25,0,.38.34,2.78,2.11,4.91,4.17,5.31a8.21,8.21,0,0,0,1,2c-1.56-.71-3.73-1.37-5-.34-2.16,1.73-.39,2.56-.39,2.56s10.2,2.5,11.52,1.92c.34-.15.22-.43-.13-.76a7.18,7.18,0,0,0,.8,0c4-.49,6.72-4.37,6.19-8.66S93.5,229.21,89.55,229.7Z"/><path class="cls-28" d="M95.65,239.65a8.85,8.85,0,0,1-3.8,1.41c1.46,2.47-1.19,4.21-1.19,4.21a7.18,7.18,0,0,0,.8,0c4-.49,6.72-4.37,6.19-8.66a8.31,8.31,0,0,0-.64-2.36C98,237.6,96.92,238.68,95.65,239.65Z"/><path class="cls-30" d="M79.51,227.38s5.29,1.07,11-5.9c0,0-5.29-2.55-10.39,4.25,0,0,1-.06.17.63-.21.18,1.08-.27,1.08-.27l-.79.75,1.17-.33A7,7,0,0,1,79.51,227.38Z"/><path class="cls-28" d="M79.51,234.23l0-1a15.37,15.37,0,0,1-5.76-2.11A6.61,6.61,0,0,0,79.51,234.23Z"/><path class="cls-29" d="M99.65,240.69a2.68,2.68,0,1,1-3-2.33A2.69,2.69,0,0,1,99.65,240.69Z"/><path class="cls-28" d="M82.69,234.7c-1.15,1.92-1.91,2.44-2.3,2.56a5.06,5.06,0,0,0,3.31,2.66s-3.15-7.51,4.49-7.34C88.19,232.58,84.42,231.79,82.69,234.7Z"/><path class="cls-28" d="M238.54,252l23.31,6.7L284,266.46l-2.21-16-23.23-21.57-21,1.11-4.75,2.25c-3.33,1.58-11.7,8.38-10.73,11.94l1.84,2.58C225.14,251.39,233.9,250.68,238.54,252Z"/><polygon class="cls-31" points="239.08 240.83 260.19 251.39 245.95 248.62 240.42 249.87 232.35 248.95 236.54 243.37 239.08 240.83"/><path class="cls-32" d="M275.12,245.44c-.06-.43-.13-.89-.21-1.37l-16.38-15.22-19.17,1-.74,2.31,2.21,6.64,18.25,10.5a41.29,41.29,0,0,0,6.09,1.11S275.67,249.31,275.12,245.44Z"/><path class="cls-28" d="M239.36,224.24,237.51,230l3.32,8.85L258,247.1a41.09,41.09,0,0,0,6.08,1.11s10.51-1.11,10-5a76.81,76.81,0,0,0-3.32-14.38C269,224.43,243.78,219.82,239.36,224.24Z"/><path class="cls-33" d="M265.58,231.34l1,4-.74,3.82,4.32,7.71c2.22-.77,4.13-1.94,3.89-3.65a76.81,76.81,0,0,0-3.32-14.38l-8.16-1.1Z"/><path class="cls-34" d="M231.06,237.7l-2.85-2.42c-3.11,2.53-6.28,5.94-6.24,8.3,1.24,1.29,3.14,3.22,3.74,3.71a14.89,14.89,0,0,0,6.64,1.66c1.66-.19,7.19-8.67,7.19-8.67Z"/><path class="cls-35" d="M236.93,230.23l-4.17,2a23.06,23.06,0,0,0-3.74,2.43l2.55,2.65,8,3-2.72-4.38Z"/><polygon class="cls-34" points="240.83 238.81 250.08 243.28 249.13 240.19 248.44 235.07 239.36 224.24 237.51 229.96 240.83 238.81"/><polygon class="cls-35" points="239.54 240.28 257.29 249.59 260.19 251.39 239.08 240.83 235.58 238.34 239.54 240.28"/><path class="cls-35" d="M239.36,224.24l-.46,1.41,9.54,9.42s12.58-7,14.1-7.32c1-.19-8-3.45-15.38-5.3C243.56,222.46,240.61,223,239.36,224.24Z"/><polygon class="cls-31" points="262.54 227.75 257.42 229.4 248.44 235.07 249.13 240.19 261.3 241.71 266.55 235.35 265.58 231.34 262.54 227.75"/><polygon class="cls-33" points="250.08 243.28 261.39 242.4 261.3 241.71 249.13 240.19 250.08 243.28"/><path class="cls-34" d="M261.29,241.71l-1.7,5.77a27.61,27.61,0,0,0,4.47.73s10.51-1.11,10-5l-7.47-7.88Z"/><polygon class="cls-34" points="245.95 248.62 260.19 251.39 262.26 257.33 244.98 251.66 240.42 249.87 245.95 248.62"/><polygon class="cls-33" points="268.85 257.61 268.77 261.14 283.97 266.46 281.76 250.42 275.67 256.69 268.85 257.61"/><path class="cls-36" d="M285.92,275.6c-.15.59-1.67,1.34-3.2.94s-2.51-1.78-2.36-2.37,1.67-1.33,3.2-.94S286.07,275,285.92,275.6Z"/><path class="cls-36" d="M286,276c.46.4.44,2.09-.6,3.28s-2.72,1.44-3.17,1-.44-2.09.6-3.28S285.5,275.56,286,276Z"/><ellipse class="cls-36" cx="279.54" cy="277.64" rx="2.87" ry="1.71" transform="translate(-66.24 88.79) rotate(-16.16)"/><path class="cls-36" d="M288.5,274.26c-.58-.16-1.3-1.69-.87-3.22s1.84-2.46,2.42-2.3,1.3,1.7.87,3.23S289.08,274.43,288.5,274.26Z"/><path class="cls-36" d="M288.14,274.29c-.41.45-2.1.39-3.27-.67s-1.37-2.75-1-3.2,2.1-.39,3.27.68S288.55,273.85,288.14,274.29Z"/><path class="cls-20" d="M287.34,270.62c-.58.15-2-.81-2.38-2.34s.33-3,.91-3.21,2,.81,2.39,2.34S287.93,270.46,287.34,270.62Z"/><path class="cls-36" d="M293.38,274.54c-.1-.6,1-1.9,2.54-2.16s3,.61,3.11,1.21-1,1.9-2.54,2.16S293.48,275.13,293.38,274.54Z"/><path class="cls-36" d="M293.2,274.22c-.58-.18-1.25-1.73-.78-3.24s1.9-2.42,2.48-2.24,1.25,1.74.78,3.25S293.77,274.4,293.2,274.22Z"/><path class="cls-36" d="M296.18,271.94c-.39-.47-.12-2.14,1.1-3.16s2.9-1,3.29-.54.12,2.14-1.09,3.16S296.57,272.4,296.18,271.94Z"/><path class="cls-36" d="M296.91,278.14c-.1-.6,1-1.9,2.54-2.16s3,.62,3.11,1.21-1,1.9-2.54,2.16S297,278.73,296.91,278.14Z"/><path class="cls-36" d="M296.73,277.82c-.58-.18-1.25-1.73-.78-3.24s1.9-2.41,2.48-2.23,1.25,1.73.78,3.24S297.3,278,296.73,277.82Z"/><path class="cls-36" d="M299.71,275.54c-.39-.46-.12-2.14,1.1-3.15s2.9-1,3.29-.54S304.22,274,303,275,300.1,276,299.71,275.54Z"/><path class="cls-36" d="M295.58,275.24c-.1-.59,1-1.89,2.55-2.15s3,.61,3.11,1.21-1,1.89-2.55,2.15S295.68,275.84,295.58,275.24Z"/><path class="cls-36" d="M295.4,274.93c-.57-.18-1.25-1.73-.78-3.25s1.91-2.41,2.48-2.23,1.25,1.73.78,3.24S296,275.11,295.4,274.93Z"/><path class="cls-36" d="M298.39,272.64c-.39-.46-.12-2.13,1.09-3.15s2.91-1,3.3-.54.11,2.13-1.1,3.15S298.78,273.1,298.39,272.64Z"/><path class="cls-36" d="M287.68,275.83c-.1-.59,1-1.89,2.55-2.15s3,.61,3.11,1.21-1,1.89-2.55,2.15S287.78,276.43,287.68,275.83Z"/><path class="cls-36" d="M287.51,275.52c-.58-.18-1.26-1.73-.79-3.25s1.91-2.41,2.48-2.23,1.25,1.73.79,3.24S288.08,275.7,287.51,275.52Z"/><path class="cls-36" d="M290.49,273.23c-.39-.46-.12-2.13,1.09-3.15s2.91-1,3.3-.54.11,2.13-1.1,3.15S290.88,273.69,290.49,273.23Z"/><path class="cls-36" d="M291.75,277.68c-.1-.6,1-1.9,2.55-2.16s3,.62,3.11,1.21-1,1.9-2.55,2.16S291.85,278.27,291.75,277.68Z"/><path class="cls-36" d="M291.58,277.36c-.58-.18-1.26-1.73-.79-3.24s1.91-2.41,2.48-2.24,1.25,1.74.79,3.25S292.15,277.54,291.58,277.36Z"/><path class="cls-20" d="M294.56,275.08c-.39-.47-.12-2.14,1.09-3.16s2.91-1,3.3-.53.11,2.13-1.1,3.15S295,275.54,294.56,275.08Z"/><path class="cls-36" d="M296.17,278.25c.34-.5,2-.69,3.34.2s1.75,2.53,1.41,3-2,.69-3.34-.2S295.84,278.75,296.17,278.25Z"/><path class="cls-36" d="M296.26,277.9c-.29-.53.3-2.12,1.68-2.89s3.05-.42,3.34.1-.3,2.12-1.68,2.89S296.56,278.43,296.26,277.9Z"/><path class="cls-20" d="M300,278.31c0-.6,1.39-1.62,3-1.52s2.79,1.28,2.75,1.89-1.39,1.62-3,1.52S300,278.91,300,278.31Z"/><path class="cls-36" d="M296.15,282.39c.34-.5,2-.69,3.33.2s1.75,2.53,1.41,3-2,.69-3.33-.2S295.81,282.89,296.15,282.39Z"/><path class="cls-36" d="M296.24,282c-.29-.53.29-2.11,1.68-2.88s3-.43,3.34.1-.3,2.11-1.68,2.88S296.53,282.57,296.24,282Z"/><path class="cls-20" d="M300,282.45c0-.6,1.39-1.62,3-1.52s2.79,1.29,2.75,1.89-1.39,1.62-3,1.52S299.94,283.06,300,282.45Z"/><path class="cls-36" d="M289.1,276.39c.34-.5,2-.69,3.33.2s1.75,2.53,1.41,3-2,.69-3.33-.2S288.76,276.89,289.1,276.39Z"/><path class="cls-20" d="M289.19,276c-.3-.53.29-2.11,1.67-2.88s3.05-.43,3.34.1-.29,2.12-1.68,2.88S289.48,276.57,289.19,276Z"/><path class="cls-36" d="M292.92,276.45c0-.6,1.39-1.62,3-1.52s2.79,1.29,2.75,1.89-1.39,1.62-3,1.52S292.88,277.06,292.92,276.45Z"/><path class="cls-36" d="M296.47,279.16c-.13.59-1.63,1.37-3.18,1s-2.54-1.73-2.4-2.32,1.64-1.37,3.18-1S296.61,278.57,296.47,279.16Z"/><path class="cls-36" d="M296.52,279.52c.46.38.48,2.08-.53,3.29s-2.69,1.49-3.15,1.11-.49-2.08.53-3.3S296.05,279.13,296.52,279.52Z"/><path class="cls-36" d="M292.88,280.48c.18.57-.71,2-2.22,2.48s-3.07-.19-3.25-.77.71-2,2.23-2.49S292.7,279.9,292.88,280.48Z"/><path class="cls-36" d="M292.91,277.68c-.13.58-1.64,1.37-3.18,1s-2.54-1.73-2.4-2.32,1.64-1.37,3.18-1S293.05,277.09,292.91,277.68Z"/><path class="cls-20" d="M293,278c.46.38.48,2.08-.53,3.29s-2.69,1.49-3.15,1.1-.49-2.08.53-3.29S292.49,277.65,293,278Z"/><path class="cls-36" d="M289.32,279c.18.58-.71,2-2.22,2.49s-3.07-.2-3.25-.77.71-2,2.23-2.49S289.14,278.42,289.32,279Z"/><path class="cls-36" d="M287.9,277.34c-.13.58-1.63,1.37-3.18,1s-2.54-1.73-2.4-2.32,1.64-1.37,3.18-1S288,276.75,287.9,277.34Z"/><path class="cls-36" d="M288,277.7c.46.38.48,2.08-.53,3.29s-2.69,1.49-3.15,1.11-.49-2.08.53-3.3S287.48,277.31,288,277.7Z"/><path class="cls-36" d="M284.31,278.65c.18.58-.71,2-2.22,2.49s-3.07-.19-3.25-.77.72-2,2.23-2.49S284.13,278.08,284.31,278.65Z"/><path class="cls-36" d="M288.47,274.66c-.52.32-2.13-.21-3-1.56s-.54-3,0-3.34,2.12.21,2.94,1.57S289,274.35,288.47,274.66Z"/><path class="cls-20" d="M288.24,275c.05.6-1.15,1.8-2.72,1.92s-2.95-.87-3-1.48,1.15-1.8,2.73-1.92S288.19,274.34,288.24,275Z"/><path class="cls-20" d="M285,273c-.28.53-1.93.9-3.33.15s-2-2.33-1.72-2.86,1.94-.9,3.34-.15S285.3,272.49,285,273Z"/><path class="cls-36" d="M291.78,271.38c-.16-.58.78-2,2.3-2.41s3.06.29,3.22.87-.78,2-2.3,2.42S291.94,272,291.78,271.38Z"/><path class="cls-20" d="M291.57,271.09c-.59-.12-1.43-1.59-1.12-3.15s1.63-2.6,2.23-2.48,1.42,1.59,1.12,3.14S292.16,271.2,291.57,271.09Z"/><path class="cls-36" d="M294.29,268.5c-.43-.42-.34-2.11.76-3.25s2.78-1.31,3.22-.89.34,2.11-.76,3.25S294.73,268.92,294.29,268.5Z"/><path class="cls-37" d="M208.87,249c-.48.5-2.15,1.35-2.94,1.09s-.42-1.53.06-2a2.44,2.44,0,0,1,2.31-.43C209.1,247.92,209.35,248.54,208.87,249Z"/><path class="cls-37" d="M201.54,250.59c-.89.19-1.4.78-1.14,1.31a1.93,1.93,0,0,0,2.09.6c.89-.19,2.56-1,2.29-1.56S202.43,250.39,201.54,250.59Zm6,2a2.51,2.51,0,0,0-2.2-1.43c-.92.14-1.28,1.41-1.1,1.95s1.06.87,2,.73S207.72,253.09,207.54,252.55Z"/><path class="cls-37" d="M204.79,248.47a2.37,2.37,0,0,0-2.33-.19c-.78.34-1,1-.48,1.43s2.22,1.11,3,.77S205.3,248.91,204.79,248.47Z"/><path class="cls-37" d="M210.46,250.89c.09-.56-.58-1-1.5-1.06s-3,.39-3.05.95,1.77,1.07,2.7,1.09S210.36,251.45,210.46,250.89Z"/><path class="cls-38" d="M206.77,251.08a2.24,2.24,0,0,1-2.11.4c-.73-.24-1-.8-.52-1.26a2.24,2.24,0,0,1,2.11-.4C207,250.06,207.21,250.62,206.77,251.08Z"/><path class="cls-37" d="M219.8,258.33a3.42,3.42,0,0,1-2.47.92c-.66-.22-.35-1.28.06-1.71a2,2,0,0,1,1.94-.36C220,257.4,220.21,257.91,219.8,258.33Z"/><path class="cls-37" d="M213.64,259.64c-.75.16-1.18.65-1,1.1a1.66,1.66,0,0,0,1.76.51c.75-.17,2.15-.87,1.93-1.32S214.39,259.47,213.64,259.64Zm5.05,1.64a2.15,2.15,0,0,0-1.86-1.2c-.76.12-1.07,1.19-.92,1.65s.9.73,1.66.6S218.84,261.74,218.69,261.28Z"/><path class="cls-37" d="M216.37,257.85a2,2,0,0,0-2-.16c-.65.29-.83.83-.4,1.2a3.34,3.34,0,0,0,2.52.65C217.18,259.26,216.8,258.23,216.37,257.85Z"/><path class="cls-37" d="M221.14,259.89c.08-.47-.48-.87-1.26-.89s-2.48.33-2.56.8,1.49.9,2.26.91S221.06,260.36,221.14,259.89Z"/><path class="cls-38" d="M218,260.05a1.89,1.89,0,0,1-1.78.33c-.61-.2-.8-.67-.43-1.05a1.85,1.85,0,0,1,1.77-.34C218.21,259.19,218.41,259.66,218,260.05Z"/><path class="cls-37" d="M234.79,256a3,3,0,0,1-2.08.77c-.56-.19-.3-1.08,0-1.44a1.75,1.75,0,0,1,1.64-.31C235,255.18,235.13,255.61,234.79,256Z"/><path class="cls-37" d="M229.6,257.06c-.63.14-1,.55-.81.93a1.41,1.41,0,0,0,1.48.43c.63-.14,1.81-.74,1.63-1.11S230.23,256.92,229.6,257.06Zm4.25,1.39a1.78,1.78,0,0,0-1.56-1c-.65.1-.9,1-.78,1.38s.75.61,1.4.51S234,258.83,233.85,258.45Z"/><path class="cls-37" d="M231.9,255.56a1.67,1.67,0,0,0-1.65-.13c-.55.24-.7.69-.34,1A2.83,2.83,0,0,0,232,257C232.58,256.74,232.26,255.88,231.9,255.56Z"/><path class="cls-37" d="M235.91,257.27c.07-.39-.41-.73-1.06-.74s-2.09.27-2.16.67,1.26.75,1.91.77S235.84,257.67,235.91,257.27Z"/><path class="cls-38" d="M233.3,257.41a1.57,1.57,0,0,1-1.49.28c-.52-.17-.68-.56-.37-.89a1.57,1.57,0,0,1,1.49-.28C233.45,256.69,233.61,257.09,233.3,257.41Z"/><path class="cls-37" d="M199.27,239.36a3,3,0,0,1-2.08.77c-.56-.19-.3-1.08,0-1.44a1.73,1.73,0,0,1,1.64-.3C199.43,238.57,199.61,239,199.27,239.36Z"/><path class="cls-37" d="M194.08,240.45c-.63.14-1,.56-.8.93a1.38,1.38,0,0,0,1.47.43c.63-.14,1.81-.74,1.63-1.11S194.71,240.31,194.08,240.45Zm4.25,1.39a1.8,1.8,0,0,0-1.56-1c-.65.1-.9,1-.78,1.38s.76.62,1.4.51S198.46,242.22,198.33,241.84Z"/><path class="cls-37" d="M196.38,239a1.72,1.72,0,0,0-1.65-.13c-.55.24-.7.69-.33,1a2.82,2.82,0,0,0,2.12.55C197.06,240.13,196.74,239.27,196.38,239Z"/><path class="cls-37" d="M200.39,240.67c.07-.4-.4-.74-1.06-.75s-2.09.27-2.15.67,1.25.75,1.9.77S200.32,241.06,200.39,240.67Z"/><path class="cls-38" d="M197.78,240.8a1.57,1.57,0,0,1-1.49.28c-.51-.17-.68-.56-.37-.89a1.62,1.62,0,0,1,1.5-.28C197.93,240.08,198.09,240.48,197.78,240.8Z"/><path class="cls-37" d="M209.8,240.68a3,3,0,0,1-2.08.77c-.56-.19-.3-1.08,0-1.44a1.76,1.76,0,0,1,1.64-.31C210,239.89,210.14,240.32,209.8,240.68Z"/><path class="cls-37" d="M204.61,241.77c-.63.14-1,.55-.8.93a1.38,1.38,0,0,0,1.47.43c.63-.14,1.81-.74,1.63-1.11S205.24,241.63,204.61,241.77Zm4.25,1.39a1.78,1.78,0,0,0-1.56-1c-.65.1-.9,1-.78,1.38s.76.61,1.4.51S209,243.54,208.86,243.16Z"/><path class="cls-37" d="M206.91,240.27a1.72,1.72,0,0,0-1.65-.13c-.55.24-.7.69-.33,1a2.77,2.77,0,0,0,2.12.54C207.59,241.45,207.27,240.59,206.91,240.27Z"/><path class="cls-37" d="M210.92,242c.07-.39-.4-.73-1.06-.74s-2.09.27-2.15.67,1.25.75,1.9.77S210.85,242.38,210.92,242Z"/><path class="cls-38" d="M208.31,242.12a1.57,1.57,0,0,1-1.49.28c-.51-.17-.68-.56-.37-.89a1.59,1.59,0,0,1,1.5-.28C208.46,241.4,208.62,241.8,208.31,242.12Z"/><path class="cls-2" d="M222.49,292.89c-5.15,0-9.33,1.17-9.33,2.6s4.18,2.61,9.33,2.61,9.33-1.17,9.33-2.61S227.64,292.89,222.49,292.89ZM204.22,295c1.94-2.42,9.86-4.22,19.34-4.22,7.05,0,13.22,1,16.73,2.5-3.24-2-9.68-3.41-17.11-3.41C213.79,289.82,206,292,204.22,295Zm19.34,6.51c-10.06,0-18.36-2-19.62-4.67.93,3.23,9.19,5.76,19.24,5.76,8,0,14.95-1.62,17.85-3.93C237.7,300.31,231.13,301.46,223.56,301.46Zm-25.34-5c0-3.42,7.12-6.26,16.35-6.7a65.13,65.13,0,0,0-8.65.81c-5.59,1.17-9.07,3.4-8.52,5.95.35,1.67,2.38,3.19,5.44,4.35C200,299.69,198.23,298.15,198.22,296.46Zm40.66-1c.05-2.46-7.9-3.69-6.77-3.38,3.4.93,5.59,2.09,5.91,3.31.38,1.52-2.2,2.84-6.6,3.69C236,298.22,238.85,296.94,238.88,295.44Z"/><path class="cls-39" d="M215,290a6.29,6.29,0,0,0,1.29,4.84c1.46,1.52,3.94,1.64,5.88,1.72a10.8,10.8,0,0,0,4.8-.86,3.37,3.37,0,0,0,1.4-1c.38-.49-.86-2.66-1.13-3.31-.18-.44-6.31-8.53-9.53-8.53a1.08,1.08,0,0,0-.56.11c-.18.11-.49.89-.62,1.05s-.86-.65-1.14-.55c-.49.17-.14,1.18,0,1.67C215.86,286.54,215.15,288.25,215,290Z"/><path class="cls-40" d="M220,295.26c-4.33-1.06-3.68-9.12-3.64-9.58s1.29-1.48,1.62-2.58a1.14,1.14,0,0,0,0-.25l-.2,0a1.08,1.08,0,0,0-.56.11c-.18.11-.49.89-.62,1.05s-.86-.65-1.14-.55c-.49.17-.14,1.18,0,1.67.43,1.44-.28,3.15-.39,4.86a6.29,6.29,0,0,0,1.29,4.84c1.46,1.52,3.94,1.64,5.88,1.72a10.8,10.8,0,0,0,4.8-.86,3.37,3.37,0,0,0,1.4-1c.11-.14.08-.43,0-.78C226.63,294.69,223.07,296,220,295.26Z"/><path class="cls-41" d="M223,289.64a1.66,1.66,0,1,1-1.66-1.66A1.66,1.66,0,0,1,223,289.64Z"/><path class="cls-42" d="M222.58,289.64a1.24,1.24,0,1,1-1.24-1.24A1.24,1.24,0,0,1,222.58,289.64Z"/><path class="cls-39" d="M221.39,289.13a.52.52,0,1,1-.51-.51A.51.51,0,0,1,221.39,289.13Z"/><path class="cls-37" d="M80.45,193.62c5.23.18,9.46,4.09,14.21,6.27a22.53,22.53,0,0,0,14.27,1.47,6.53,6.53,0,0,0,3.25-1.52,2.77,2.77,0,0,0,.58-3.31c-.76-.3-1.06.94-1.51,1.62-.79,1.19-2.91.5-3.26-.87a3.44,3.44,0,0,1,1.84-3.52,5.55,5.55,0,0,1,7.53,7.75c-1.35,2.12-3.93,3.07-6.4,3.55a27.94,27.94,0,0,1-13.35-.67c-5.13-1.54-8.49-5.19-13.58-6.83-2.59-.83-9.13-2.76-16,1.29C70.65,195.87,76.46,193.48,80.45,193.62Z"/><path class="cls-15" d="M218.69,348.87A1.44,1.44,0,0,0,218,348a1.9,1.9,0,0,0-1.38.21,5.2,5.2,0,0,1-6.54-3.37,1.76,1.76,0,0,1,2.11-1,4.9,4.9,0,0,1,1.31.87,5.9,5.9,0,0,0,6,.63c-1-1.44-2.95-1.9-4-3.29a3.6,3.6,0,0,1,.58-4.79l1.63-.12a11.12,11.12,0,0,0,.32,2.69,1.48,1.48,0,0,0,.35.72c.76.74,1.82-.53,2.19-1.53s1.19-2.36,2.38-2.31,1.95,1.86,1.36,3a5.22,5.22,0,0,1-3.16,2.22c-.56,1.61,2.39,2.88,1.85,4.5-.14.41-.52.76-.51,1.2,0,.61.72,1,1.33,1a2.88,2.88,0,0,0,1.84-5.14c-.59-.48-1.49-1-1.21-1.72.18-.46.76-.57,1.25-.63a2.12,2.12,0,0,1,1.61.26,3,3,0,0,1,.62.94,3.3,3.3,0,0,0,5.57-.27,11.54,11.54,0,0,1-5.91-7.26,2,2,0,0,1,3.37.78,3.45,3.45,0,0,0,.27,1.44c.63.92,2.08,0,2.61-1s1.27-2.29,2.36-2,1.13,1.6.67,2.46a21,21,0,0,1-1.9,2.22c-.59.78-.83,2-.09,2.66s2.09.1,2.93-.58,1.86-1.51,2.89-1.16c1.27.44,1.27,2.41.31,3.35a6.61,6.61,0,0,1-3.71,1.34c-1.18.19-2.34.42-3.5.7-.77.19-1.67.54-1.79,1.33-.2,1.24,1.62,1.65,2.86,1.46s3-.08,3.12,1.17c.06.75-.62,1.34-1.29,1.69a7.84,7.84,0,0,1-8.4-.83,1.78,1.78,0,0,1-1.42,1.44,6.75,6.75,0,0,0,2.1,2.12,4.24,4.24,0,0,1-3.39.67c1.11.26.71,6.17-3.73,3.53C218.47,355.65,219.86,352.1,218.69,348.87Z"/><path class="cls-38" d="M249.56,352.68a.94.94,0,0,0-.46-.6,1.3,1.3,0,0,0-1,.14,3.65,3.65,0,0,1-4.61-2.37,1.24,1.24,0,0,1,1.49-.69,3.68,3.68,0,0,1,.92.61,4.15,4.15,0,0,0,4.2.45c-.68-1-2.08-1.35-2.82-2.32a2.54,2.54,0,0,1,.4-3.38l1.15-.09a8.1,8.1,0,0,0,.23,1.9,1.2,1.2,0,0,0,.24.51c.54.52,1.29-.37,1.55-1.08s.84-1.67,1.68-1.63,1.37,1.31,1,2.14a3.68,3.68,0,0,1-2.23,1.57c-.4,1.13,1.68,2,1.3,3.17-.1.29-.36.54-.36.85s.51.68.94.68a2,2,0,0,0,1.3-3.62c-.42-.34-1.05-.72-.86-1.22.13-.32.54-.4.89-.44a1.51,1.51,0,0,1,1.13.18,2.16,2.16,0,0,1,.44.67,2.33,2.33,0,0,0,3.92-.19,8.17,8.17,0,0,1-4.16-5.12,1.39,1.39,0,0,1,2.37.54c.06.35,0,.73.19,1,.45.65,1.47,0,1.84-.69s.9-1.61,1.67-1.41.8,1.12.47,1.73a16.37,16.37,0,0,1-1.34,1.57,1.42,1.42,0,0,0-.06,1.87c.58.5,1.47.07,2.07-.41s1.31-1.07,2-.82c.9.31.9,1.7.22,2.36a4.64,4.64,0,0,1-2.62.95c-.82.13-1.65.3-2.46.49-.54.14-1.18.39-1.27.94-.14.87,1.14,1.17,2,1s2.13-.06,2.2.82c0,.53-.44.95-.91,1.2a5.54,5.54,0,0,1-5.92-.58,1.25,1.25,0,0,1-1,1,4.61,4.61,0,0,0,1.48,1.5,3,3,0,0,1-2.39.47c.78.19.5,4.35-2.63,2.49C249.4,357.45,250.38,355,249.56,352.68Z"/><polygon class="cls-28" points="139.75 185.72 139.92 186.39 139.43 185.9 139.75 185.72"/><path class="cls-28" d="M137.51,184.47l-.32-.74a.7.7,0,0,0-.56-.44l-3.84-.08,4-.56a.65.65,0,0,1,.65.32l.61.93a.64.64,0,0,0,.8.27l.63-.27a.61.61,0,0,1,.72.18l1.71,1.82-1.71-1.07a.62.62,0,0,0-.56,0l-.1,0c.29.3.54.82.11,1s-.48-.2-.48-.2-.94.4-1.6-.82l-1.7.2,1-.8Z"/><path class="cls-28" d="M139.5,185.73a.07.07,0,0,0,.06.07.09.09,0,0,0,.06-.07.06.06,0,1,0-.12,0Z"/><polygon class="cls-28" points="137.23 195.03 137.42 195.85 136.86 195.25 137.23 195.03"/><path class="cls-28" d="M134.7,193.49l-.35-.92a.86.86,0,0,0-.63-.55l-4.31-.11,4.48-.66a.71.71,0,0,1,.73.39l.69,1.14a.69.69,0,0,0,.9.34l.7-.33a.65.65,0,0,1,.81.22l1.93,2.25-1.92-1.32a.6.6,0,0,0-.63,0L137,194c.32.37.6,1,.12,1.22-.32.14-.54-.24-.54-.24s-1,.48-1.79-1l-1.91.24,1.08-1Z"/><path class="cls-28" d="M137,195c0,.05,0,.08.06.08a.08.08,0,0,0,.07-.08s0-.09-.07-.09S137,195,137,195Z"/><polygon class="cls-28" points="149.93 193.61 150.04 194.1 149.71 193.75 149.93 193.61"/><path class="cls-28" d="M148.43,192.7l-.22-.55a.48.48,0,0,0-.37-.32l-2.56-.06,2.66-.4a.43.43,0,0,1,.44.23l.41.68a.41.41,0,0,0,.53.2l.42-.2a.39.39,0,0,1,.48.14l1.14,1.33-1.14-.78a.35.35,0,0,0-.37,0l-.06,0c.19.22.35.6.07.73s-.32-.15-.32-.15-.63.29-1.07-.6l-1.13.14.64-.58Z"/><path class="cls-28" d="M149.76,193.62a0,0,0,1,0,0-.05A0,0,0,0,0,149.76,193.62Z"/><ellipse class="cls-37" cx="146.78" cy="150.22" rx="18.8" ry="9.29"/><path class="cls-43" d="M147.33,156.75c-10.06,0-18.25-3.91-18.75-8.82a5,5,0,0,0-.6,2.29c0,5.14,8.41,9.3,18.8,9.3s18.8-4.16,18.8-9.3c0-.16,0-.31-.05-.47C163.46,153.77,156.11,156.75,147.33,156.75Z"/><ellipse class="cls-37" cx="132.49" cy="157.32" rx="12.36" ry="6.11"/><path class="cls-43" d="M144.09,155.22c-.31,3.24-5.7,5.82-12.33,5.82-5.33,0-9.86-1.68-11.6-4a2.58,2.58,0,0,0,0,.29c0,3.38,5.54,6.11,12.36,6.11s12.37-2.73,12.37-6.11A3.49,3.49,0,0,0,144.09,155.22Z"/><ellipse class="cls-37" cx="166.97" cy="151.88" rx="8.34" ry="4.12"/><ellipse class="cls-37" cx="171.67" cy="165.98" rx="12.36" ry="6.11"/><path class="cls-43" d="M182.92,163.46v0c0,3.37-5.54,6.11-12.37,6.11-5,0-9.31-1.48-11.25-3.59,0,3.36,5.55,6.08,12.36,6.08S184,169.36,184,166A3.72,3.72,0,0,0,182.92,163.46Z"/><rect class="cls-3" x="360.4" y="179.84" width="1.11" height="1.11"/><path class="cls-3" d="M361.51,196.65H360.4v-4.84h1.11Zm0-7.25H360.4v-6h1.11Z"/><path class="cls-3" d="M361.51,220.81H360.4V216h1.11Zm0-7.25H360.4v-6h1.11Zm0-8.46H360.4v-2.41h1.11Z"/><rect class="cls-3" x="360.4" y="226.85" width="1.11" height="1.11"/><rect class="cls-3" x="369.25" y="179.84" width="1.11" height="1.11"/><path class="cls-3" d="M370.36,196.65h-1.11v-4.84h1.11Zm0-7.25h-1.11v-6h1.11Z"/><path class="cls-3" d="M370.36,220.81h-1.11V216h1.11Zm0-7.25h-1.11v-6h1.11Zm0-8.46h-1.11v-2.41h1.11Z"/><rect class="cls-3" x="369.25" y="226.85" width="1.11" height="1.11"/><rect class="cls-3" x="380.68" y="179.84" width="1.11" height="1.11"/><path class="cls-3" d="M381.79,196.65h-1.11v-4.84h1.11Zm0-7.25h-1.11v-6h1.11Z"/><path class="cls-3" d="M381.79,220.81h-1.11V216h1.11Zm0-7.25h-1.11v-6h1.11Zm0-8.46h-1.11v-2.41h1.11Z"/><rect class="cls-3" x="380.68" y="226.85" width="1.11" height="1.11"/><rect class="cls-3" x="384.74" y="179.84" width="1.11" height="1.11"/><path class="cls-3" d="M385.84,196.65h-1.1v-4.84h1.1Zm0-7.25h-1.1v-6h1.1Z"/><path class="cls-3" d="M385.84,220.81h-1.1V216h1.1Zm0-7.25h-1.1v-6h1.1Zm0-8.46h-1.1v-2.41h1.1Z"/><rect class="cls-3" x="384.74" y="226.85" width="1.11" height="1.11"/><ellipse class="cls-3" cx="372.27" cy="173.24" rx="18.8" ry="9.29"/><path class="cls-11" d="M372.82,179.77c-10.06,0-18.25-3.91-18.75-8.82a5,5,0,0,0-.6,2.29c0,5.13,8.42,9.29,18.8,9.29s18.8-4.16,18.8-9.29a3.75,3.75,0,0,0-.05-.47C389,176.79,381.6,179.77,372.82,179.77Z"/><ellipse class="cls-3" cx="357.99" cy="180.34" rx="12.36" ry="6.11"/><path class="cls-11" d="M369.58,178.23c-.31,3.24-5.7,5.82-12.33,5.82-5.33,0-9.86-1.67-11.6-4,0,.1,0,.2,0,.3,0,3.37,5.54,6.11,12.37,6.11s12.36-2.74,12.36-6.11A3.54,3.54,0,0,0,369.58,178.23Z"/><ellipse class="cls-3" cx="392.46" cy="174.9" rx="8.34" ry="4.12"/><ellipse class="cls-3" cx="397.16" cy="189" rx="12.36" ry="6.11"/><path class="cls-11" d="M408.42,186.48v0c0,3.38-5.53,6.12-12.36,6.12-5,0-9.32-1.48-11.26-3.6,0,3.37,5.56,6.08,12.36,6.08s12.37-2.73,12.37-6.11A3.77,3.77,0,0,0,408.42,186.48Z"/><path class="cls-44" d="M437.72,280.47s-.47-8.42,2-13.27c2.6-5.07,8-6.61-2.77-8.3-21-3.32-46.82-5.16-40.92-7.74s24.7-9.59,21-12.17-21.75-7.74-21.75-7.74a87.62,87.62,0,0,0,8.85-4.43c3.69-2.21,12.9-2.95,23.6-1.84s25.44,6.64,25.44,6.64v32.63S450.26,273.65,437.72,280.47Z"/><path class="cls-45" d="M437.72,280.47s-.47-8.42,2-13.27c2.6-5.07,13.86-11.21,3.13-12.91-21-3.32-50.14-.55-44.24-3.13s33-13.64,29.31-16.23-24-5.71-24-5.71-3.5-.18.19-2.4,12.9-2.95,23.6-1.84,25.44,6.64,25.44,6.64v32.63S450.26,273.65,437.72,280.47Z"/><path class="cls-46" d="M336.3,262.16l-.62-.4,4,14.47L327.39,280l31.8,3-3.14,4.79,12.85-4.28S339.84,271.55,336.3,262.16Z"/><path class="cls-47" d="M306.09,177.05l-2.21,5.53L319,201.75l12.82,11.46c-1.47-8.15-23-38.56-23-38.56l-8.38-36.71-.19-.22-12.41.34,18.21,35.67-10.79,1.34Z"/><path class="cls-11" d="M443.39,257.8c-.5-2.6-6.25-3.68-12.85-2.42s-11.54,4.4-11.05,7c.09.46.33,1.7.52,2.7.1.53,6.49,4.92,13.09,3.65s11.55-4.39,11-7C444,261,443.53,258.5,443.39,257.8Z"/><path class="cls-3" d="M441.55,257.53c.37,1.89-3.92,4.3-9.56,5.38s-10.52.43-10.89-1.46,3.92-4.31,9.57-5.39S441.19,255.64,441.55,257.53Z"/><path class="cls-11" d="M438.27,258.62c.2,1-2.71,2.44-6.5,3.17s-7,.48-7.22-.54,2.72-2.44,6.51-3.17S438.08,257.6,438.27,258.62Z"/><path class="cls-12" d="M426.62,262.16a22,22,0,0,0,10.07-1.93,18.75,18.75,0,0,0-5.15.37A19.15,19.15,0,0,0,426.62,262.16Z"/><path class="cls-11" d="M415.55,265.15s-3,3.58,13.29,5.87C428.84,271,411.62,269.89,415.55,265.15Z"/><path class="cls-11" d="M411.85,266.78s-1.54,2.55,6.56,4C418.41,270.79,409.85,270.15,411.85,266.78Z"/><path class="cls-48" d="M452,215.44l-4.73,3.41-.14-5.12v-3.87l2.95-12.72,3.5-.18.93-1.29h-3.32l3.68-4.24-.73-.92-2.28,2.58-3.25,3.68L446,191.06l-.93.18,3,7-3.31,13.09-6.09-8.3-10.32-5.16-.55,1.11,8.66,4.6-7.37,5.35-2.77-1.1-.74.92,3.87,1.29,8.12-5.53,5.14,8.5v29.34l.3.1a5.88,5.88,0,0,0,4.13-.1V222.43l6.08-6.52,1.47-4.87-1.07-.46Z"/><path class="cls-48" d="M414.72,212.15l-2.81,2-.08-3v-2.31l1.75-7.56,2.09-.11.54-.76h-2l2.19-2.53-.44-.54-1.35,1.53-1.93,2.19-1.54-3.39-.55.11,1.76,4.16-2,7.78-3.61-4.93-6.14-3.07-.33.66,5.15,2.74-4.38,3.18-1.65-.66-.43.55,2.3.76,4.82-3.28,3.06,5.05v17.44l.18.07a3.5,3.5,0,0,0,2.45-.07V216.31l3.62-3.88.87-2.9-.64-.27Z"/><path class="cls-11" d="M379.83,236.51c-.43-.29-.43-.9-.44-1.42s-.19-1.16-.69-1.25a.81.81,0,0,0-.85.62,1.69,1.69,0,0,0,.17,1.12,1.16,1.16,0,0,1,.18.56c0,.38-.44.6-.82.64a3.85,3.85,0,0,0-1.13.13c-.36.14-.6.64-.33.9l1.44.1c.25.23,0,.63-.24.88s-.45.67-.17.87a.57.57,0,0,0,.29.08c.33,0,.75,0,.9-.28s0-.52.23-.66.4,0,.5.18a1.06,1.06,0,0,1,.05.59c-.06.5-.11,1-.16,1.52a.91.91,0,0,0,1.06-.62,2.76,2.76,0,0,0,0-1.34l.62,0a1,1,0,0,0,1.49.83c.31-.27.08-.8-.23-1.08s-.69-.61-.62-1c.57.27,1.2-.37,1.27-1,.05-.39-.2-.91-.58-.8s-.21,1.12-.68,1.36c-.33-.41-.67-1-.38-1.41s.7-.66.44-.93a1.4,1.4,0,0,0-1,1.73"/><path class="cls-11" d="M397.39,265.49c.18-.38.66-.46,1.07-.53s.89-.29.9-.7a.65.65,0,0,0-.59-.6,1.39,1.39,0,0,0-.87.28.89.89,0,0,1-.41.21c-.31,0-.54-.28-.62-.57a3.28,3.28,0,0,0-.24-.88c-.15-.26-.58-.39-.75-.14l.1,1.15c-.15.22-.5.07-.72-.08s-.59-.27-.71,0a.48.48,0,0,0,0,.24c0,.27.07.6.33.68s.42,0,.55.09a.29.29,0,0,1-.08.42.9.9,0,0,1-.46.11l-1.22.07a.73.73,0,0,0,.62.76,2.15,2.15,0,0,0,1.06-.16c0,.16.07.33.1.49a.83.83,0,0,0-.47,1.27c.25.22.64,0,.83-.31s.39-.62.73-.62c-.15.49.44.91.94.89.32,0,.69-.28.56-.56s-.91,0-1.16-.38c.29-.3.69-.64,1.07-.47s.61.48.79.23a1.12,1.12,0,0,0-1.48-.54"/><path class="cls-11" d="M432.55,240.64c-.4.09-.76-.25-1.06-.53s-.77-.54-1.11-.29a.64.64,0,0,0-.11.83,1.36,1.36,0,0,0,.74.52,1,1,0,0,1,.42.2.67.67,0,0,1-.08.84,3.18,3.18,0,0,0-.56.72c-.11.28,0,.7.35.69l.85-.77c.27,0,.36.34.37.62s.14.63.41.58a.55.55,0,0,0,.21-.12c.2-.18.43-.42.34-.68s-.29-.31-.26-.5.23-.23.38-.18a.86.86,0,0,1,.37.29c.26.32.53.63.79.94a.73.73,0,0,0,.23-1,2.16,2.16,0,0,0-.77-.76l.33-.37a.83.83,0,0,0,1.3-.4c0-.33-.41-.48-.75-.47s-.73.06-.93-.2c.47-.18.45-.9.13-1.29s-.64-.38-.78-.11.53.74.4,1.15c-.42,0-.93-.16-1-.57s0-.76-.29-.76a1.12,1.12,0,0,0,.46,1.51"/><path class="cls-11" d="M366.17,251.86c-.41,0-.66-.46-.88-.81s-.58-.73-1-.59a.63.63,0,0,0-.35.76,1.37,1.37,0,0,0,.57.71.9.9,0,0,1,.35.32c.13.27-.07.59-.32.77a3.29,3.29,0,0,0-.73.54c-.19.24-.16.68.13.76l1-.51c.26.06.25.44.18.7s0,.65.23.68a.6.6,0,0,0,.23-.06c.25-.11.54-.28.52-.55s-.19-.38-.11-.55a.29.29,0,0,1,.42-.08.91.91,0,0,1,.27.39c.16.37.33.75.5,1.12a.72.72,0,0,0,.48-.85,2.09,2.09,0,0,0-.52-.94l.42-.26a.84.84,0,0,0,1.36,0c.11-.31-.26-.58-.59-.66s-.72-.15-.84-.46c.51,0,.69-.74.49-1.2-.12-.29-.5-.55-.72-.32s.3.86.06,1.21c-.38-.15-.84-.41-.82-.83s.23-.73-.06-.82a1.12,1.12,0,0,0,0,1.58"/><path class="cls-49" d="M410.07,343.33l-23.23-18.8L377,300.78s-22.83,4.06-30.44,5.08-30.9,3.18-30.9,3.18l-28.37,44.25s-61.94,15.48-88.49,1.11c-24.12-13.07-38.19-45.3-40.57-51.09-53.38-8.91-89.06-24.58-89.69-42.46,0,.35,0,.69,0,1,0,79,86.06,143.09,192.22,143.09,69.93,0,131.13-27.8,164.76-69.36Z"/></g></svg>