<svg xmlns="http://www.w3.org/2000/svg" xmlns:xlink="http://www.w3.org/1999/xlink" viewBox="0 0 555.58 177.43"><defs><style>.cls-1{fill:url(#linear-gradient);}.cls-2{isolation:isolate;}.cls-3{clip-path:url(#clip-path);}.cls-4,.cls-7,.cls-8,.cls-9{mix-blend-mode:color-dodge;}.cls-4{fill:url(#radial-gradient);}.cls-5{mix-blend-mode:multiply;fill:url(#linear-gradient-3);}.cls-6{fill:url(#linear-gradient-4);}.cls-7{fill:url(#radial-gradient-2);}.cls-8{fill:url(#radial-gradient-3);}.cls-9{fill:url(#radial-gradient-4);}.cls-10{font-size:107px;fill:#302b45;font-family:Poppins-Bold, Poppins;font-weight:700;}</style><linearGradient id="linear-gradient" x1="24.21" y1="101.75" x2="144.36" y2="16.92" gradientUnits="userSpaceOnUse"><stop offset="0" stop-color="#2eade8"/><stop offset="1" stop-color="#3ad666"/></linearGradient><clipPath id="clip-path"><path class="cls-1" d="M135.2,26.14a57.92,57.92,0,0,0-72.52,89.19c.39-8,3.49-15.85,7.95-23.07,10.54-17,28.65-30.53,36.61-34.34-.44.16-23.06,5.6-40.53,20.22a37.88,37.88,0,0,1,58.92-34.32,37.23,37.23,0,0,1,5.3,4.32,92.74,92.74,0,0,0,7.3-20C137.24,27.47,136.23,26.78,135.2,26.14Z"/></clipPath><radialGradient id="radial-gradient" cx="-7.54" cy="109.7" r="109.74" gradientUnits="userSpaceOnUse"><stop offset="0" stop-color="#fff"/><stop offset="0.14" stop-color="#c0bebe"/><stop offset="0.31" stop-color="#807b7b"/><stop offset="0.46" stop-color="#4d4646"/><stop offset="0.58" stop-color="#292020"/><stop offset="0.69" stop-color="#120909"/><stop offset="0.75" stop-color="#0a0000"/></radialGradient><linearGradient id="linear-gradient-3" x1="100.19" y1="48.67" x2="149.89" y2="26.55" gradientUnits="userSpaceOnUse"><stop offset="0" stop-color="#a0a48c"/><stop offset="1" stop-color="#fff" stop-opacity="0"/></linearGradient><linearGradient id="linear-gradient-4" x1="52" y1="132.03" x2="178.33" y2="42.84" xlink:href="#linear-gradient"/><radialGradient id="radial-gradient-2" cx="186.87" cy="99.29" r="63.55" xlink:href="#radial-gradient"/><radialGradient id="radial-gradient-3" cx="26.68" cy="157" r="114.57" xlink:href="#radial-gradient"/><radialGradient id="radial-gradient-4" cx="93.68" cy="-20.85" r="70.33" xlink:href="#radial-gradient"/></defs><title>Artboard 7</title><g class="cls-2"><g id="OBJECTS"><path class="cls-1" d="M135.2,26.14a57.92,57.92,0,0,0-72.52,89.19c.39-8,3.49-15.85,7.95-23.07,10.54-17,28.65-30.53,36.61-34.34-.44.16-23.06,5.6-40.53,20.22a37.88,37.88,0,0,1,58.92-34.32,37.23,37.23,0,0,1,5.3,4.32,92.74,92.74,0,0,0,7.3-20C137.24,27.47,136.23,26.78,135.2,26.14Z"/><g class="cls-3"><path class="cls-4" d="M61.28,111a55.12,55.12,0,0,1-6.54-9.88,56.7,56.7,0,0,1-5.7-34,56.07,56.07,0,0,1,85.18-39.35q.94.59,1.92,1.26a88.29,88.29,0,0,1-5.81,16.11A39.73,39.73,0,0,0,64.86,78.29l.28,3.59,2.76-2.32c8.44-7.07,18.2-12,26.09-15.2C85.44,71,75.64,80.65,69.06,91.29A53.94,53.94,0,0,0,61.28,111Z"/><path class="cls-5" d="M139.17,8.34c-1.52,10.43-4.44,25.36-29.46,40.92l17.66,10.3L139.17,53,149.66,5.53"/></g><path class="cls-6" d="M155.68,48.15a57.62,57.62,0,0,0-9.29-12.86A61.12,61.12,0,0,1,139.5,60.8a96.34,96.34,0,0,1-10.76,16.5,59,59,0,0,0,12.8-9.84,37,37,0,0,1,.81,7.78A37.75,37.75,0,0,1,131.26,102l-26.79,26.79c-19.2-19.2,10.67-48.15,26.46-80.67a92.74,92.74,0,0,0,7.3-20,53.21,53.21,0,0,0,.94-19.84,51.18,51.18,0,0,1-4,17.8,99.66,99.66,0,0,1-9.57,17.68c-14.4,21.78-36.14,42.61-43.75,62.39-4.75,12.34-4,24.28,7.45,35.79l.09.08,15,15,40.95-40.94a58,58,0,0,0,10.26-68Z"/><path class="cls-7" d="M90.64,140.69c-9.86-9.91-12.09-20.65-7-33.81,4.62-12,14.58-24.44,25.12-37.58,6.37-7.94,13-16.15,18.45-24.46a105.06,105.06,0,0,0,9.11-16.48,90.92,90.92,0,0,1-7,19c-4.29,8.86-9.64,17.43-14.81,25.72C101,94.7,88.2,115.16,103.16,130.12l1.31,1.31,28.1-28.1a39.8,39.8,0,0,0,10.79-36.25l-.7-3.31-2.41,2.37c-1.23,1.2-2.42,2.29-3.55,3.25a86.14,86.14,0,0,0,4.45-7.76,64,64,0,0,0,6.76-21.83,56.06,56.06,0,0,1-3.8,75.08l-39.64,39.63Z"/><path class="cls-8" d="M90.64,140.69c-9.86-9.91-12.09-20.65-7-33.81,4.62-12,14.58-24.44,25.12-37.58,6.37-7.94,13-16.15,18.45-24.46a105.06,105.06,0,0,0,9.11-16.48,90.92,90.92,0,0,1-7,19c-4.29,8.86-9.64,17.43-14.81,25.72C101,94.7,88.2,115.16,103.16,130.12l1.31,1.31,28.1-28.1a39.8,39.8,0,0,0,10.79-36.25l-.7-3.31-2.41,2.37c-1.23,1.2-2.42,2.29-3.55,3.25a86.14,86.14,0,0,0,4.45-7.76,64,64,0,0,0,6.76-21.83,56.06,56.06,0,0,1-3.8,75.08l-39.64,39.63Z"/><path class="cls-9" d="M61.28,111a55.12,55.12,0,0,1-6.54-9.88,56.7,56.7,0,0,1-5.7-34,56.07,56.07,0,0,1,85.18-39.35q.94.59,1.92,1.26a88.29,88.29,0,0,1-5.81,16.11A39.73,39.73,0,0,0,64.86,78.29l.28,3.59,2.76-2.32c8.44-7.07,18.2-12,26.09-15.2C85.44,71,75.64,80.65,69.06,91.29A53.94,53.94,0,0,0,61.28,111Z"/><text class="cls-10" transform="translate(181.58 125.69)">Green</text></g></g></svg>